<?xml version="1.0" encoding="UTF-8"?>
<svg width="48px" height="48px" viewBox="0 0 48 48" version="1.1" xmlns="http://www.w3.org/2000/svg" xmlns:xlink="http://www.w3.org/1999/xlink">
    <!-- Generator: Sketch 50.2 (55047) - http://www.bohemiancoding.com/sketch -->
    <title>添加@2x</title>
    <desc>Created with Sketch.</desc>
    <defs></defs>
    <g id="日程" stroke="none" stroke-width="1" fill="none" fill-rule="evenodd">
        <g id="日程-空页面" transform="translate(-342.000000, -608.000000)">
            <g id="添加" transform="translate(342.000000, 608.000000)">
                <circle id="Oval-5" fill="#5AA0E8" cx="24" cy="24" r="24"></circle>
                <path d="M14.6744409,22.5106239 C13.944379,22.5106239 13.360791,23.0982494 13.360791,23.8231203 C13.360791,24.553038 13.9489356,25.1356167 14.6744409,25.1356167 L22.5482946,25.1356167 L22.5482946,33.0094703 C22.5482946,33.7395322 23.1359201,34.3231203 23.860791,34.3231203 C24.5907086,34.3231203 25.1732874,33.7349756 25.1732874,33.0094703 L25.1732874,25.1356167 L33.047141,25.1356167 C33.7772029,25.1356167 34.360791,24.5479911 34.360791,23.8231203 C34.360791,23.0932026 33.7726463,22.5106239 33.047141,22.5106239 L25.1732874,22.5106239 L25.1732874,14.6367702 C25.1732874,13.9067084 24.5856618,13.3231203 23.860791,13.3231203 C23.1308733,13.3231203 22.5482946,13.9112649 22.5482946,14.6367702 L22.5482946,22.5106239 L14.6744409,22.5106239 Z" fill="#FFFFFF"></path>
            </g>
        </g>
    </g>
</svg>