<?xml version="1.0" encoding="UTF-8"?>
<svg width="30px" height="30px" viewBox="0 0 30 30" version="1.1" xmlns="http://www.w3.org/2000/svg" xmlns:xlink="http://www.w3.org/1999/xlink">
    <!-- Generator: Sketch 51 (57462) - http://www.bohemiancoding.com/sketch -->
    <title>基础样式/图标/小元素/删除@2x</title>
    <desc>Created with Sketch.</desc>
    <defs></defs>
    <g id="任务" stroke="none" stroke-width="1" fill="none" fill-rule="evenodd">
        <g id="图片预览" transform="translate(-192.000000, -690.000000)">
            <g id="基础样式/图标/小元素/删除" transform="translate(192.000000, 690.000000)">
                <circle id="Oval-3" fill="#F6F6F6" fill-rule="nonzero" cx="15" cy="15" r="14"></circle>
                <path d="M15,30 C6.71572875,30 0,23.2842712 0,15 C0,6.71572875 6.71572875,0 15,0 C23.2842712,0 30,6.71572875 30,15 C30,23.2842712 23.2842712,30 15,30 Z M15,12.8571429 L10.7142857,8.57142857 L8.57142857,10.7142857 L12.8571429,15 L8.57142857,19.2857143 L10.7142857,21.4285714 L15,17.1428571 L19.2857143,21.4285714 L21.4285714,19.2857143 L17.1428571,15 L21.4285714,10.7142857 L19.2857143,8.57142857 L15,12.8571429 Z" fill="#9B9B9B"></path>
            </g>
        </g>
    </g>
</svg>