<?xml version="1.0" encoding="UTF-8"?>
<svg width="73px" height="69px" viewBox="0 0 73 69" version="1.1" xmlns="http://www.w3.org/2000/svg" xmlns:xlink="http://www.w3.org/1999/xlink">
    <!-- Generator: Sketch 50.2 (55047) - http://www.bohemiancoding.com/sketch -->
    <title>Group 2 Copy@2x</title>
    <desc>Created with Sketch.</desc>
    <defs></defs>
    <g id="空白页" stroke="none" stroke-width="1" fill="none" fill-rule="evenodd">
        <g id="任务已删除" transform="translate(-171.000000, -227.000000)" stroke="#55A8FD">
            <g id="Group-2-Copy" transform="translate(171.000000, 227.000000)">
                <path d="M10.5,10.5 L10.5,65 C10.5,66.9329966 12.0670034,68.5 14,68.5 L59,68.5 C60.9329966,68.5 62.5,66.9329966 62.5,65 L62.5,10.5 L10.5,10.5 Z" id="Rectangle-6-Copy" fill="#DDF0FF"></path>
                <rect id="Rectangle-7-Copy" fill="#FFFFFF" x="21.5" y="20.5" width="5" height="36"></rect>
                <rect id="Rectangle-7-Copy-2" fill="#FFFFFF" x="33.5" y="20.5" width="5" height="36"></rect>
                <rect id="Rectangle-7-Copy-3" fill="#FFFFFF" x="46.5" y="20.5" width="5" height="36"></rect>
                <rect id="Rectangle-8-Copy" fill="#DDF0FF" x="0.5" y="7.5" width="72" height="3"></rect>
                <path d="M26.5,7.5 L46.5,7.5 L46.5,6 C46.5,2.96243388 44.0375661,0.5 41,0.5 L32,0.5 C28.9624339,0.5 26.5,2.96243388 26.5,6 L26.5,7.5 Z" id="Rectangle-9-Copy" fill="#DDF0FF"></path>
            </g>
        </g>
    </g>
</svg>