<?xml version="1.0" encoding="UTF-8"?>
<svg width="70px" height="70px" viewBox="0 0 70 70" version="1.1" xmlns="http://www.w3.org/2000/svg" xmlns:xlink="http://www.w3.org/1999/xlink">
    <!-- Generator: Sketch 51 (57462) - http://www.bohemiancoding.com/sketch -->
    <title>Group 5@2x</title>
    <desc>Created with Sketch.</desc>
    <defs></defs>
    <g id="空白页" stroke="none" stroke-width="1" fill="none" fill-rule="evenodd">
        <g id="任务已删除" transform="translate(-172.000000, -231.000000)">
            <g id="Group-5" transform="translate(172.000000, 231.000000)">
                <g id="2-copy-4" stroke="#55A8FD">
                    <g id="日程-copy-2">
                        <rect id="Rectangle-3" fill="#DDF0FF" x="0.5" y="0.5" width="69" height="69" rx="4"></rect>
                        <path d="M8.5,14.1570653 L8.5,57.8719202 C8.5,59.2510104 9.6191674,60.3695652 10.9995609,60.3695652 L59.0004391,60.3695652 C60.3860799,60.3695652 61.5,59.2542736 61.5,57.8719202 L61.5,14.1570653 C61.5,12.7779751 60.3808326,11.6594203 59.0004391,11.6594203 L10.9995609,11.6594203 C9.61392013,11.6594203 8.5,12.7747119 8.5,14.1570653 Z" id="Rectangle-3-Copy-2" fill="#FFFFFF"></path>
                        <rect id="Rectangle-4" fill="#FFFFFF" x="19.5" y="5.57246377" width="5" height="14.2173913" rx="2"></rect>
                        <rect id="Rectangle-4-Copy" fill="#FFFFFF" x="45.5" y="5.57246377" width="5" height="14.2173913" rx="2"></rect>
                    </g>
                </g>
                <g id="错" transform="translate(25.000000, 38.000000)" fill-rule="nonzero">
                    <rect id="Rectangle-path" fill="#000000" opacity="0" x="0" y="0" width="20" height="20"></rect>
                    <path d="M11.8625367,7.47332692 C12.0437789,7.47332692 12.2001088,7.53773212 12.3300779,7.66644598 C12.4604332,7.79728413 12.5259972,7.95216561 12.5259972,8.13321471 C12.5259972,8.31426382 12.4603367,8.47117304 12.3299813,8.60191464 L10.9317994,10 L12.3299813,11.3941264 C12.4603367,11.524868 12.5259972,11.6797495 12.5259972,11.8567431 C12.5259972,12.0377922 12.4603367,12.1947014 12.3299813,12.3235118 C12.2001088,12.4522257 12.0437789,12.5166309 11.8625367,12.5166309 C11.6802323,12.5166309 11.5259302,12.4522257 11.3990509,12.325443 L10,10.9314132 L8.6060667,12.325443 C8.47909092,12.4522257 8.3231473,12.5166309 8.13746334,12.5166309 C7.95622111,12.5166309 7.80114651,12.4522257 7.6723361,12.325443 C7.54342913,12.1987569 7.47902392,12.0438755 7.47902394,11.8628263 C7.47902394,11.6777217 7.54265666,11.5208125 7.6687634,11.3940299 L9.06810403,10 L7.6687634,8.60181809 C7.54265666,8.47513199 7.47902394,8.32025052 7.47902394,8.13929796 C7.47902394,7.95612453 7.54342915,7.79921531 7.6723361,7.67050148 C7.8011465,7.53975987 7.9562211,7.47545123 8.13746334,7.47545123 C8.32015395,7.47332692 8.47571135,7.53975987 8.6060667,7.67050148 L10,9.06868339 L11.3989544,7.67050148 C11.5297925,7.53975987 11.6840947,7.47545123 11.8624401,7.47545123 L11.8624401,7.47332692 L11.8625367,7.47332692 Z M10,4.07568693 C9.19759035,4.07568693 8.42994213,4.23259615 7.69850373,4.54641461 C6.96687222,4.85820532 6.33653164,5.28065323 5.8084476,5.80767512 C5.27997732,6.33682131 4.85888124,6.96638941 4.54544902,7.69869685 C4.23201681,8.42887997 4.0753007,9.19730067 4.07491446,10 C4.0743351,10.8006716 4.23143745,11.5690923 4.54544902,12.3013032 C4.85955716,13.0336106 5.28036356,13.6632752 5.8084476,14.1923249 C6.3361454,14.7193468 6.96581007,15.1397669 7.69850373,15.4535854 C8.43081117,15.7674039 9.19826627,15.9243131 10,15.9243131 C10.80212,15.9243131 11.5690923,15.7674039 12.3018825,15.4535854 C13.0341899,15.1397669 13.6638546,14.7193468 14.1915524,14.1923249 C14.7196364,13.6631787 15.1404428,13.0336106 15.454551,12.3013032 C15.7685626,11.5690923 15.9256649,10.8006716 15.9250855,10 C15.9246993,9.19730067 15.7681763,8.42897653 15.454551,7.69869685 C15.1413119,6.96638941 14.7202158,6.33672476 14.1915524,5.80767512 C13.6633718,5.28065323 13.0333209,4.85820532 12.3018825,4.54641461 C11.5703475,4.2324996 10.8024096,4.07568693 10,4.07568693 Z M10,2.75803566 C10.9843278,2.75803566 11.9232726,2.94922352 12.8162551,3.33140612 C13.7094307,3.71358872 14.4790101,4.22854066 15.1257658,4.87433075 C15.7725215,5.52002429 16.2864113,6.29047274 16.668787,7.18364834 C17.0510662,8.07682395 17.2419643,9.01634813 17.2419643,10 C17.2419643,10.9837484 17.0510662,11.9211483 16.668787,12.8163517 C16.2864113,13.7095273 15.7725215,14.477948 15.1257658,15.1236415 C14.4790101,15.7714594 13.7095272,16.2864113 12.8162551,16.6666627 C11.9232726,17.0488453 10.9843278,17.2419643 10,17.2419643 C9.01586532,17.2419643 8.07711363,17.0488453 7.18374491,16.6666627 C6.29066586,16.2864113 5.52118301,15.7714593 4.87442732,15.1236415 C4.22767163,14.477948 3.71358871,13.7095273 3.33140612,12.8163517 C2.9490304,11.9211483 2.75803566,10.9836519 2.75803566,10 C2.75803566,9.01625156 2.94893384,8.07682395 3.33140612,7.18364834 C3.71358872,6.29047274 4.22767163,5.52002429 4.87442732,4.87433075 C5.52118301,4.22854065 6.29066586,3.71358871 7.18374491,3.33130956 C8.07711363,2.94922352 9.01586532,2.75803566 10,2.75803566 Z" id="Shape" fill="#55A8FD"></path>
                </g>
                <path d="M16.5,31.5 L23.5,31.5" id="Line" stroke="#55A8FD" stroke-width="2" stroke-linecap="square" fill-rule="nonzero"></path>
                <path d="M47.5,31.25 L54.5,31.25" id="Line-Copy" stroke="#55A8FD" stroke-width="2" stroke-linecap="square" fill-rule="nonzero"></path>
            </g>
        </g>
    </g>
</svg>