<?xml version="1.0" encoding="UTF-8"?>
<svg width="36px" height="26px" viewBox="0 0 36 26" version="1.1" xmlns="http://www.w3.org/2000/svg" xmlns:xlink="http://www.w3.org/1999/xlink">
    <!-- Generator: Sketch 50.2 (55047) - http://www.bohemiancoding.com/sketch -->
    <title>Shape@2x</title>
    <desc>Created with Sketch.</desc>
    <defs></defs>
    <g id="选人" stroke="none" stroke-width="1" fill="none" fill-rule="evenodd">
        <g id="选人（待定）" transform="translate(-14.000000, -123.000000)" fill="#4F77AA" fill-rule="nonzero">
            <g id="Group-8" transform="translate(0.000000, 108.000000)">
                <path d="M27.4877857,15.8195966 L27.4877857,22.7791875 L37.2515804,22.7791875 L37.2515804,15.8195966 L27.4877857,15.8195966 Z M45.95225,33.7992955 L40.1744911,33.7992955 L40.1744911,40.7603182 L49.9397321,40.7603182 L49.9397321,33.7992955 L45.95225,33.7992955 Z M18.7886027,33.7992955 L14.8010804,33.7992955 L14.8010804,40.7603182 L24.5663214,40.7603182 L24.5663214,33.7992955 L20.5759464,33.7992955 L18.7886027,33.7992955 Z M31.4752679,33.7992955 L27.4877857,33.7992955 L27.4877857,40.7603182 L37.2515804,40.7603182 L37.2515804,33.7992955 L33.2640982,33.7992955 L31.4752679,33.7992955 Z M45.0571518,27.4031648 L33.2640982,27.4031648 L33.2640982,23.822983 L31.4752679,23.822983 L31.4752679,27.4031648 L18.7886027,27.4031648 L18.7886027,32.6623125 L20.5759464,32.6623125 L20.5759464,29.2986534 L31.4752679,29.2986534 L31.4752679,32.6623125 L33.2640982,32.6623125 L33.2640982,29.2986534 L44.1649062,29.2986534 L44.1649062,32.6623125 L45.95225,32.6623125 L45.95225,27.4031648 L45.0571518,27.4031648 Z" id="Shape"></path>
            </g>
        </g>
    </g>
</svg>