<?xml version="1.0" encoding="UTF-8"?>
<svg width="18px" height="20px" viewBox="0 0 18 20" version="1.1" xmlns="http://www.w3.org/2000/svg" xmlns:xlink="http://www.w3.org/1999/xlink">
    <!-- Generator: Sketch 50.2 (55047) - http://www.bohemiancoding.com/sketch -->
    <title>excel@2x</title>
    <desc>Created with Sketch.</desc>
    <defs></defs>
    <g id="搜索" stroke="none" stroke-width="1" fill="none" fill-rule="evenodd">
        <g id="Artboard" transform="translate(-126.000000, -233.000000)">
            <g id="excel" transform="translate(126.000000, 233.000000)">
                <g id="Page-1">
                    <polygon id="Fill-1" fill="#86E270" points="0 0 0 19.9584123 17.2755495 19.9584123 17.2755495 4.69870595 12.9881868 0"></polygon>
                    <polygon id="Fill-2" fill="#EEFFE9" points="12.9881364 0 12.9881364 4.69609701 17.2760034 4.69870595"></polygon>
                    <polygon id="Fill-3" fill="#68CA52" points="17.2757512 8.53092982 17.2757512 4.69839288 12.9878842 4.69630572"></polygon>
                </g>
                <g id="Group-52" transform="translate(4.860000, 6.248571)" fill="#FFFFFF">
                    <g id="Group-53" transform="translate(0.000000, 0.208320)">
                        <polygon id="Fill-7" opacity="0.680253623" points="0 5.92898637 8.33078769 5.92898637 8.33078769 3.89868132 0 3.89868132"></polygon>
                        <polygon id="Fill-9" points="8.33078769 7.44851077 8.33078769 3.89868132 6.30048264 3.89868132 6.30048264 7.44851077 0 7.44851077 0 9.47881582 6.30048264 9.47881582 8.33078769 9.47881582 8.33142857 9.47881582 8.33142857 7.44851077"></polygon>
                        <polygon id="Fill-11" points="8.33078769 0.347142857 2.03030505 0.347142857 0 0.347142857 0 5.92791824 2.03030505 5.92791824 2.03030505 2.37744791 8.33078769 2.37744791"></polygon>
                    </g>
                </g>
            </g>
        </g>
    </g>
</svg>