<?xml version="1.0" encoding="UTF-8"?>
<svg width="26px" height="28px" viewBox="0 0 26 28" version="1.1" xmlns="http://www.w3.org/2000/svg" xmlns:xlink="http://www.w3.org/1999/xlink">
    <!-- Generator: Sketch 50.2 (55047) - http://www.bohemiancoding.com/sketch -->
    <title>记事蓝@2x</title>
    <desc>Created with Sketch.</desc>
    <defs></defs>
    <g id="规范" stroke="none" stroke-width="1" fill="none" fill-rule="evenodd" stroke-linecap="round">
        <g id="图标" transform="translate(-279.000000, -85.000000)" stroke="#467DB9">
            <g id="记事蓝" transform="translate(280.000000, 86.000000)">
                <path d="M0,2.4419305 L0,24 C1.3527075e-16,25.1045695 0.8954305,26 2,26 L22,26 C23.1045695,26 24,25.1045695 24,24 L24,2 C24,0.8954305 23.1045695,-2.02906125e-16 22,0 L7.3256433,0" id="Path-2" transform="translate(12.000000, 13.000000) scale(-1, 1) translate(-12.000000, -13.000000) "></path>
                <path d="M14,0 L21.2436756,11.4107418" id="Path-3" transform="translate(17.621838, 5.705371) scale(-1, 1) translate(-17.621838, -5.705371) "></path>
                <path d="M4,6 L10.7936579,6" id="Path-4"></path>
                <path d="M4,12 L10.7936579,12" id="Path-4-Copy"></path>
                <path d="M4,18 L19.39305,18" id="Path-4-Copy-2"></path>
            </g>
        </g>
    </g>
</svg>