<?xml version="1.0" encoding="UTF-8"?>
<svg width="99px" height="99px" viewBox="0 0 99 99" version="1.1" xmlns="http://www.w3.org/2000/svg" xmlns:xlink="http://www.w3.org/1999/xlink">
    <!-- Generator: Sketch 50.2 (55047) - http://www.bohemiancoding.com/sketch -->
    <title>Group 2@2x</title>
    <desc>Created with Sketch.</desc>
    <defs></defs>
    <g id="日程" stroke="none" stroke-width="1" fill="none" fill-rule="evenodd">
        <g id="日程-空页面-copy" transform="translate(-158.000000, -319.000000)">
            <g id="Group-2" transform="translate(160.000000, 321.000000)">
                <g id="Group-7" transform="translate(20.000000, 14.000000)">
                    <g id="Group">
                        <path d="M27.3808355,59.5822407 C45.6347259,47.9964386 54.761671,37.1983626 54.761671,27.1880127 C54.761671,12.1724879 42.3963603,0 27.3808355,0 C12.3653107,0 0,12.1724879 0,27.1880127 C0,37.1983626 9.12694517,47.9964386 27.3808355,59.5822407 Z" id="Oval" fill="#EEEEEE"></path>
                        <circle id="Oval-2" fill="#EDEDED" cx="27.3808355" cy="65.3669242" r="3.47081014"></circle>
                    </g>
                    <path d="M27.1880127,43.1923039 C35.8007638,37.7181062 40.1071394,32.6161026 40.1071394,27.8862933 C40.1071394,20.7915793 34.2728026,15.0401773 27.1880127,15.0401773 C20.1032229,15.0401773 14.2688861,20.7915793 14.2688861,27.8862933 C14.2688861,32.6161026 18.5752617,37.7181062 27.1880127,43.1923039 Z" id="Oval-Copy" fill="#FFFFFF" opacity="0.629030797"></path>
                    <path d="M27.1880127,39.3358482 C33.7439874,35.1739581 37.0219748,31.2950376 37.0219748,27.6990867 C37.0219748,22.3051603 32.5809125,17.932519 27.1880127,17.932519 C21.795113,17.932519 17.3540507,22.3051603 17.3540507,27.6990867 C17.3540507,31.2950376 20.632038,35.1739581 27.1880127,39.3358482 Z" id="Oval-Copy" fill="#FFFFFF"></path>
                </g>
                <circle id="Oval-3" stroke="#EEEEEE" stroke-width="4" cx="47.5" cy="47.5" r="47.5"></circle>
            </g>
        </g>
    </g>
</svg>