<?xml version="1.0" encoding="UTF-8"?>
<svg width="71px" height="70px" viewBox="0 0 71 70" version="1.1" xmlns="http://www.w3.org/2000/svg" xmlns:xlink="http://www.w3.org/1999/xlink">
    <!-- Generator: Sketch 50.2 (55047) - http://www.bohemiancoding.com/sketch -->
    <title>2 copy 2@3x</title>
    <desc>Created with Sketch.</desc>
    <defs></defs>
    <g id="空白页" stroke="none" stroke-width="1" fill="none" fill-rule="evenodd">
        <g id="计划-空页面" transform="translate(-171.000000, -226.000000)" stroke="#55A8FD">
            <g id="2-copy-2" transform="translate(171.000000, 226.000000)">
                <g id="日程-copy-2">
                    <rect id="Rectangle-3" fill="#DDF0FF" x="0.840483753" y="0.5" width="69" height="69" rx="4"></rect>
                    <path d="M11.4150679,14.0067919 L11.4150679,57.2083339 C11.4150679,58.5932668 12.5369055,59.7125625 13.9238559,59.7125625 L28.9062799,59.7125625 C30.2929521,59.7125625 31.4150679,58.5917636 31.4150679,57.2083339 L31.4150679,14.0067919 C31.4150679,12.6218591 30.2932303,11.5025634 28.9062799,11.5025634 L13.9238559,11.5025634 C12.5371837,11.5025634 11.4150679,12.6233622 11.4150679,14.0067919 Z" id="Rectangle-3-Copy-2" fill="#FFFFFF"></path>
                    <path d="M39.4150679,14.0015543 L39.4150679,43.0010091 C39.4150679,44.3758915 40.5408254,45.5 41.9238559,45.5 L56.9062799,45.5 C58.2931469,45.5 59.4150679,44.3813495 59.4150679,43.0010091 L59.4150679,14.0015543 C59.4150679,12.6266718 58.2893104,11.5025634 56.9062799,11.5025634 L41.9238559,11.5025634 C40.5369889,11.5025634 39.4150679,12.6212139 39.4150679,14.0015543 Z" id="Rectangle-3-Copy-2" fill="#FFFFFF"></path>
                </g>
            </g>
        </g>
    </g>
</svg>