<?xml version="1.0" encoding="UTF-8"?>
<svg width="76px" height="76px" viewBox="0 0 76 76" version="1.1" xmlns="http://www.w3.org/2000/svg" xmlns:xlink="http://www.w3.org/1999/xlink">
    <!-- Generator: Sketch 50.2 (55047) - http://www.bohemiancoding.com/sketch -->
    <title>图标/小元素/灰色放大镜@1x</title>
    <desc>Created with Sketch.</desc>
    <defs></defs>
    <g id="规范" stroke="none" stroke-width="1" fill="none" fill-rule="evenodd">
        <g id="图标" transform="translate(-567.000000, -376.000000)" fill="#D9D9D9">
            <g id="图标/小元素/灰色放大镜" transform="translate(567.000000, 376.000000)">
                <path d="M52.6166071,46.7704533 L76,70.1538462 L70.1538462,76 L46.7704533,52.6166071 C41.8848438,56.286729 35.8117835,58.4615385 29.2307692,58.4615385 C13.0870612,58.4615385 0,45.3744773 0,29.2307692 C0,13.0870612 13.0870612,0 29.2307692,0 C45.3744773,0 58.4615385,13.0870612 58.4615385,29.2307692 C58.4615385,35.8117835 56.286729,41.8848438 52.6166071,46.7704533 Z M29.2307692,52.6153846 C42.1457357,52.6153846 52.6153846,42.1457357 52.6153846,29.2307692 C52.6153846,16.3158028 42.1457357,5.84615385 29.2307692,5.84615385 C16.3158028,5.84615385 5.84615385,16.3158028 5.84615385,29.2307692 C5.84615385,42.1457357 16.3158028,52.6153846 29.2307692,52.6153846 Z" id="Combined-Shape"></path>
            </g>
        </g>
    </g>
</svg>