<?xml version="1.0" encoding="UTF-8"?>
<svg width="36px" height="36px" viewBox="0 0 36 36" version="1.1" xmlns="http://www.w3.org/2000/svg" xmlns:xlink="http://www.w3.org/1999/xlink">
    <!-- Generator: Sketch 50 (54983) - http://www.bohemiancoding.com/sketch -->
    <title>输入/单项输入/选择1@2x</title>
    <desc>Created with Sketch.</desc>
    <defs></defs>
    <g id="计划" stroke="none" stroke-width="1" fill="none" fill-rule="evenodd">
        <g id="计划-首页" transform="translate(-15.000000, -262.000000)">
            <g id="输入/单项输入/选择1" transform="translate(15.000000, 262.000000)">
                <rect id="Rectangle-52" stroke="#2F7DCD" stroke-width="0.5" fill="#FFFFFF" x="0.25" y="0.25" width="35.5" height="35.5" rx="2"></rect>
                <path d="M11.0769231,19.2 C11.1478879,18.8307692 11.0769231,18.7601324 11.0769231,18.4615385 L11.0769231,18.4615385 C11.0769231,18.163997 11.1471577,18.0923077 11.0769231,17.7230769 L17.7230769,17.7230769 L17.7230769,11.0769231 C18.0923077,11.1478879 18.1629445,11.0769231 18.4615385,11.0769231 L18.4615385,11.0769231 C18.75908,11.0769231 18.8307692,11.1471577 19.2,11.0769231 L19.2,17.7230769 L25.8461538,17.7230769 C25.775189,18.0923077 25.8461538,18.1629445 25.8461538,18.4615385 L25.8461538,18.4615385 C25.8461538,18.75908 25.7759192,18.8307692 25.8461538,19.2 L19.2,19.2 L19.2,25.8461538 C18.8307692,25.775189 18.7601324,25.8461538 18.4615385,25.8461538 L18.4615385,25.8461538 C18.163997,25.8461538 18.0923077,25.7759192 17.7230769,25.8461538 L17.7230769,19.2 L11.0769231,19.2 Z" id="Fill-57" fill="#2F7DCD"></path>
            </g>
        </g>
    </g>
</svg>