<?xml version="1.0" encoding="UTF-8"?>
<svg width="24px" height="26px" viewBox="0 0 24 26" version="1.1" xmlns="http://www.w3.org/2000/svg" xmlns:xlink="http://www.w3.org/1999/xlink">
    <!-- Generator: Sketch 50.2 (55047) - http://www.bohemiancoding.com/sketch -->
    <title>日程@2x</title>
    <desc>Created with Sketch.</desc>
    <defs></defs>
    <g id="规范" stroke="none" stroke-width="1" fill="none" fill-rule="evenodd">
        <g id="图标" transform="translate(-100.000000, -88.000000)" fill="#467DB9">
            <g id="Group-7" transform="translate(100.000000, 88.000000)">
                <path d="M1.07918263,9.86146751 L22.2851213,9.86146751 L22.2851213,5.6687631 C22.2851213,4.96016771 21.6915709,4.360587 20.9901022,4.360587 L18.9396552,4.360587 L18.9396552,3.27044025 L20.9901022,3.27044025 C22.2851213,3.27044025 23.3103448,4.30607966 23.3103448,5.6687631 L23.3103448,23.6016771 C23.3103448,24.9098532 22.2311622,26 20.936143,26 L2.37420179,26 C1.07918263,26 0,24.9098532 0,23.6016771 L0,5.6687631 C0,4.360587 1.07918263,3.27044025 2.37420179,3.27044025 L5.1261175,3.27044025 L5.1261175,4.360587 L2.37420179,4.360587 C1.67273308,4.360587 1.07918263,4.96016771 1.07918263,5.6687631 L1.07918263,9.86146751 Z M22.2851213,10.9603354 L1.07918263,10.9603354 L1.07918263,23.6016771 C1.07918263,24.3102725 1.67273308,24.9098532 2.37420179,24.9098532 L20.9901022,24.9098532 C21.6915709,24.9098532 22.2851213,24.3102725 22.2851213,23.6016771 L22.2851213,10.9603354 Z M6.25925926,0 L7.33844189,0 L7.33844189,7.63102725 L6.25925926,7.63102725 L6.25925926,0 Z M16.6733716,0 L17.7525543,0 L17.7525543,7.30398323 L16.6733716,7.30398323 L16.6733716,0 Z M8.57950192,3.27044025 L15.5402299,3.27044025 L15.5402299,4.360587 L8.57950192,4.360587 L8.57950192,3.27044025 Z" id="日程"></path>
            </g>
        </g>
    </g>
</svg>