<?xml version="1.0" encoding="UTF-8"?>
<svg width="36px" height="36px" viewBox="0 0 36 36" version="1.1" xmlns="http://www.w3.org/2000/svg" xmlns:xlink="http://www.w3.org/1999/xlink">
    <!-- Generator: Sketch 50.2 (55047) - http://www.bohemiancoding.com/sketch -->
    <title>Group@2x</title>
    <desc>Created with Sketch.</desc>
    <defs></defs>
    <g id="规范" stroke="none" stroke-width="1" fill="none" fill-rule="evenodd">
        <g id="图标" transform="translate(-94.000000, -226.000000)">
            <g id="Group" transform="translate(94.000000, 226.000000)">
                <rect id="Rectangle" fill="#F1F2F4" x="0" y="0" width="36" height="36" rx="2"></rect>
                <path d="M6.05434783,9.17391304 C6.05434783,7.97826087 7.0326087,7 8.22826087,7 L15.0217391,7 C16.2173913,7 17.1956522,7.97826087 17.1956522,9.17391304 L17.1956522,9.7173913 C17.1956522,10.3152174 17.6847826,10.8043478 18.2826087,10.8043478 L28.826087,10.8043478 C30.0217391,10.8043478 31,11.7826087 31,12.9782609 L31,26.5652174 C31,27.7608696 30.0217391,28.7391304 28.826087,28.7391304 L8.17391304,28.7391304 C6.97826087,28.7391304 6,27.7608696 6,26.5652174 L6,9.17391304 L6.05434783,9.17391304 Z" id="Shape" fill="#4A90E2" fill-rule="nonzero"></path>
            </g>
        </g>
    </g>
</svg>