<?xml version="1.0" encoding="UTF-8"?>
<svg width="18px" height="21px" viewBox="0 0 18 21" version="1.1" xmlns="http://www.w3.org/2000/svg" xmlns:xlink="http://www.w3.org/1999/xlink">
    <!-- Generator: Sketch 50.2 (55047) - http://www.bohemiancoding.com/sketch -->
    <title>unknown@2x</title>
    <desc>Created with Sketch.</desc>
    <defs>
        <path d="M0.257718857,1.96399543 L0.257718857,6.59682514 C0.257718857,7.93762971 1.34302629,9.02293714 2.68438629,9.02293714 C4.02574629,9.02293714 5.11160914,7.93762971 5.11160914,6.59682514 L5.11160914,2.40500571 L4.44953829,2.40500571 L4.44953829,6.59682514 C4.44953829,7.57215771 3.65971886,8.36142171 2.68438629,8.36142171 C1.70960914,8.36142171 0.919789714,7.57215771 0.919789714,6.59682514 L0.919789714,1.96399543 C0.919789714,1.35469029 1.41356571,0.860914286 2.02231543,0.860914286 C2.63162057,0.860914286 3.125952,1.35469029 3.125952,1.96399543 L3.125952,5.71424914 C3.125952,5.95697143 2.927664,6.15525943 2.68438629,6.15525943 C2.44221943,6.15525943 2.243376,5.95697143 2.243376,5.71424914 L2.243376,2.40500571 L1.58186057,2.40500571 L1.58186057,5.71424914 C1.58186057,6.32299886 2.07563657,6.81733029 2.68438629,6.81733029 C3.293136,6.81733029 3.78746743,6.32299886 3.78746743,5.71424914 L3.78746743,1.96399543 C3.78746743,0.989218286 2.997648,0.199398857 2.02231543,0.199398857 C1.04809371,0.199398857 0.257718857,0.989218286 0.257718857,1.96399543 Z" id="path-1"></path>
    </defs>
    <g id="规范" stroke="none" stroke-width="1" fill="none" fill-rule="evenodd">
        <g id="图标" transform="translate(-100.000000, -41.000000)">
            <g id="unknown" transform="translate(100.000000, 41.000000)">
                <g id="Group-50-Copy-9">
                    <g id="Page-1">
                        <polygon id="Fill-1" fill="#DFDFDF" points="0 0 0 20.8165645 17.9153846 20.8165645 17.9153846 4.9007363 13.4692308 0"></polygon>
                        <polygon id="Fill-2" fill="#FFFDFD" points="13.4691785 0 13.4691785 4.89801518 17.9158554 4.9007363"></polygon>
                        <polygon id="Fill-3" fill="#B6B6B6" points="17.9155938 8.89773438 17.9155938 4.90040977 13.4689169 4.89823287"></polygon>
                    </g>
                </g>
                <g id="Group-12" transform="translate(6.248571, 6.248571)">
                    <mask id="mask-2" fill="white">
                        <use xlink:href="#path-1"></use>
                    </mask>
                    <g id="Clip-11"></g>
                    <polygon id="Fill-10" fill="#A3A3A3" mask="url(#mask-2)" points="-1.94844343 11.2296549 7.317216 11.2296549 7.317216 -2.00676343 -1.94844343 -2.00676343"></polygon>
                </g>
            </g>
        </g>
    </g>
</svg>