<?xml version="1.0" standalone="no"?>
<!DOCTYPE svg PUBLIC "-//W3C//DTD SVG 1.1//EN" "http://www.w3.org/Graphics/SVG/1.1/DTD/svg11.dtd" >
<svg xmlns="http://www.w3.org/2000/svg">
<metadata>Generated by IcoMoon</metadata>
<defs>
<font id="icomoon2" horiz-adv-x="1024">
<font-face units-per-em="1024" ascent="960" descent="-64" />
<missing-glyph horiz-adv-x="1024" />
<glyph unicode="&#x20;" horiz-adv-x="512" d="" />
<glyph unicode="&#xe900;" glyph-name="at" d="M648.845 64.141c-374.708-29.49-540.648 118.795-540.648 397.372 0 232.788 175.126 403.818 403.804 403.818 223.020 0 403.804-180.792 403.804-403.818 0-59.95-13.040-117.952-37.869-170.986-11.085-23.675-0.877-51.854 22.798-62.939s51.854-0.877 62.939 22.798c30.682 65.534 46.8 137.232 46.8 211.127 0 275.309-223.168 498.487-498.473 498.487-280.468 0-498.473-212.906-498.473-498.487 0-334.537 213.715-525.513 642.744-491.748 26.062 2.051 45.526 24.841 43.475 50.902s-24.841 45.526-50.902 43.475zM892.882 325.902c-7.676-26.917-25.394-55.572-53.934-85.695-22.345-23.585-59.579-24.591-83.165-2.245-11.726 11.109-18.369 26.552-18.369 42.705l-0.001 426.162h-94.669l0.001-426.162c0-42.148 17.331-82.441 47.927-111.429 61.54-58.305 158.694-55.681 216.997 5.859 38.36 40.488 64.037 82.014 76.249 124.843l-91.039 25.961zM682.793 630.557l-166.153 35.746c-114.282 24.586-226.856-48.127-251.442-162.409-3.148-14.63-4.735-29.553-4.735-44.517 0-118.205 95.824-214.029 214.029-214.029 14.13 0 28.225 1.399 42.079 4.178l187.841 37.665-18.612 92.821-187.841-37.665c-7.727-1.55-15.586-2.33-23.466-2.33-65.92 0-119.36 53.44-119.36 119.36 0 8.272 0.877 16.52 2.616 24.606 13.589 63.168 75.812 103.358 138.98 89.769l166.153-35.746 19.911 92.552z" />
<glyph unicode="&#xe901;" glyph-name="align-center" d="M1.385 397.733h1022.615v97.101h-1022.615zM0 860.175h1022.299v97.101h-1022.299zM5.284-61.275h1014.751v97.101h-1014.751zM200.815 632.255h627.025v97.101h-627.025zM200.815 170.399h627.025v97.101h-627.025z" />
<glyph unicode="&#xe902;" glyph-name="arrow-down" d="M189.057 692.413c-22.741 25.241-61.639 27.268-86.88 4.526s-27.268-61.639-4.526-86.88l359.345-398.847c29.239-32.453 79.25-35.058 111.702-5.82 2.25 2.027-11.513-13.846 6.385 6.453l351.539 398.706c22.469 25.484 20.025 64.357-5.459 86.826s-64.357 20.025-86.826-5.459l-318.934-361.727-326.347 362.22z" />
<glyph unicode="&#xe903;" glyph-name="arrow-down-triangle" d="M800 640h-576l287.986-384z" />
<glyph unicode="&#xe904;" glyph-name="arrow-left" d="M756.413 770.943c25.241 22.741 27.268 61.639 4.526 86.88s-61.639 27.268-86.88 4.526l-398.847-359.345c-32.453-29.239-35.058-79.25-5.82-111.702 2.027-2.25 4.182-4.382 6.453-6.385l398.706-351.539c25.484-22.469 64.357-20.025 86.826 5.459s20.025 64.357-5.459 86.826l-361.727 318.934 362.22 326.346z" />
<glyph unicode="&#xe905;" glyph-name="arrow-right" d="M267.587 770.943c-25.241 22.741-27.268 61.639-4.526 86.88s61.639 27.268 86.88 4.526l398.847-359.345c32.453-29.239 35.058-79.25 5.82-111.702-2.027-2.25 13.846 11.513-6.453-6.385l-398.706-351.539c-25.484-22.469-64.357-20.025-86.826 5.459s-20.025 64.357 5.459 86.826l361.727 318.934-362.22 326.346z" />
<glyph unicode="&#xe906;" glyph-name="arrow-up" d="M189.057 203.587c-22.741-25.241-61.639-27.268-86.88-4.526s-27.268 61.639-4.526 86.88l359.345 398.847c29.239 32.453 79.25 35.058 111.702 5.82 2.25-2.027-11.513 13.846 6.385-6.453l351.539-398.706c22.469-25.484 20.025-64.357-5.459-86.826s-64.357-20.025-86.826 5.459l-318.934 361.727-326.346-362.22z" />
<glyph unicode="&#xe907;" glyph-name="arrow-down2" d="M247.756 647.988c-18.607 20.654-50.435 22.311-71.089 3.703s-22.311-50.435-3.703-71.089l294.030-326.352c23.924-26.555 64.845-28.685 91.399-4.762 1.841 1.657-9.421-11.329 5.223 5.28l287.643 326.237c18.385 20.851 16.386 52.659-4.467 71.044s-52.659 16.386-71.044-4.467l-260.964-295.979-267.028 296.382z" />
<glyph unicode="&#xe908;" glyph-name="arrow-up2" d="M247.755 248.011c-18.607-20.654-50.435-22.311-71.089-3.703s-22.311 50.435-3.703 71.089l294.030 326.352c23.924 26.555 64.845 28.685 91.399 4.762 1.841-1.658-9.421 11.329 5.224-5.279l287.643-326.238c18.385-20.851 16.386-52.659-4.466-71.043s-52.659-16.386-71.043 4.466l-260.964 295.98-267.029-296.383z" />
<glyph unicode="&#xe909;" glyph-name="arrow-left2" d="M798.301 826.289c29.567 26.638 31.941 72.203 5.302 101.77s-72.203 31.941-101.77 5.302l-467.202-420.93c-38.015-34.25-41.066-92.832-6.817-130.846 2.374-2.636 4.899-5.133 7.559-7.479l467.037-411.786c29.851-26.32 75.387-23.457 101.706 6.395s23.457 75.387-6.395 101.706l-423.72 373.593 424.298 382.275z" />
<glyph unicode="&#xe90a;" glyph-name="arrow-right2" d="M225.699 826.289c-29.567 26.638-31.941 72.203-5.302 101.77s72.203 31.941 101.77 5.302l467.202-420.93c38.015-34.25 41.066-92.832 6.817-130.846-2.374-2.636 16.219 13.486-7.559-7.479l-467.037-411.786c-29.851-26.32-75.387-23.457-101.706 6.395s-23.457 75.387 6.395 101.706l423.72 373.593-424.298 382.275z" />
<glyph unicode="&#xe90b;" glyph-name="arrow-left-small" d="M655.15 637.144c14.783 13.318 15.972 36.1 2.652 50.884s-36.1 15.972-50.884 2.652l-233.602-210.466c-19.007-17.124-20.532-46.416-3.409-65.422 1.188-1.316 2.451-2.565 3.78-3.74l233.517-205.892c14.924-13.16 37.692-11.729 50.852 3.196s11.729 37.692-3.196 50.852l-211.86 186.796 212.148 191.139z" />
<glyph unicode="&#xe90c;" glyph-name="arrow-right-small" d="M368.85 637.144c-14.783 13.318-15.972 36.1-2.652 50.884s36.1 15.972 50.884 2.652l233.602-210.466c19.007-17.124 20.532-46.416 3.409-65.422-1.188-1.316 8.108 6.742-3.78-3.74l-233.517-205.892c-14.924-13.16-37.692-11.729-50.852 3.196s-11.729 37.692 3.196 50.852l211.86 186.796-212.148 191.139z" />
<glyph unicode="&#xe90d;" glyph-name="add-circle" d="M468.358 505.177h-227.973c-26.931 0-48.762-21.831-48.762-48.762s21.831-48.762 48.762-48.762h227.973v-231.619c0-26.931 21.831-48.762 48.762-48.762s48.762 21.831 48.762 48.762v231.619h217.224c26.931 0 48.762 21.831 48.762 48.762s-21.831 48.762-48.762 48.762h-217.224v213.577c0 26.931-21.831 48.762-48.762 48.762s-48.762-21.831-48.762-48.762v-213.577zM512-64c-282.77 0-512 229.23-512 512s229.23 512 512 512c282.77 0 512-229.23 512-512s-229.23-512-512-512z" />
<glyph unicode="&#xe90e;" glyph-name="add-rectangle" d="M470.965 521.143h-225.205c-26.931 0-48.762-21.831-48.762-48.762s21.831-48.762 48.762-48.762h225.205v-231.619c0-26.931 21.831-48.762 48.762-48.762s48.762 21.831 48.762 48.762v231.619h219.992c26.931 0 48.762 21.831 48.762 48.762s-21.831 48.762-48.762 48.762h-219.992v213.577c0 26.931-21.831 48.762-48.762 48.762s-48.762-21.831-48.762-48.762v-213.577zM97.524 960h828.952c53.861 0 97.524-43.663 97.524-97.524v-828.952c0-53.861-43.663-97.524-97.524-97.524h-828.952c-53.861 0-97.524 43.663-97.524 97.524v828.952c0 53.861 43.663 97.524 97.524 97.524v0z" />
<glyph unicode="&#xe90f;" glyph-name="add2" d="M25.866 423.508h975.017c13.527 0 24.492 10.965 24.492 24.492s-10.965 24.492-24.492 24.492h-975.017c-13.527 0-24.492-10.965-24.492-24.492s10.965-24.492 24.492-24.492zM536.492-39.935v974.717c0 13.527-10.965 24.492-24.492 24.492s-24.492-10.965-24.492-24.492v-974.717c0-13.527 10.965-24.492 24.492-24.492s24.492 10.965 24.492 24.492z" />
<glyph unicode="&#xe910;" glyph-name="background-colour" d="M886.119 511.414l-868.465 0.178 435.712-435.712zM459.301 175.068l324.336 335.861-335.861 324.336-324.336-335.861 335.861-324.336zM411.703 937.502c18.601 19.262 49.296 19.798 68.557 1.197l405.614-391.697c19.262-18.601 19.798-49.296 1.197-68.557l-391.697-405.614c-18.601-19.262-49.296-19.798-68.557-1.197l-405.614 391.697c-19.262 18.601-19.798 49.296-1.197 68.557l391.697 405.614zM916.492-64c59.259 0 107.297 54.494 107.297 113.753s-101.257 274.335-102.797 274.335c-1.541 0-111.797-215.076-111.797-274.335s48.038-113.753 107.297-113.753zM9.49 916.445l313.9-326.589c9.278-9.653 24.625-9.957 34.277-0.679s9.957 24.625 0.679 34.277l-313.9 326.589c-9.278 9.653-24.625 9.957-34.277 0.679s-9.957-24.625-0.679-34.277z" />
<glyph unicode="&#xe911;" glyph-name="add-member" d="M612.018 130.41h364.4c13.454 0 24.36 10.906 24.36 24.36s-10.906 24.36-24.36 24.36h-364.4c-13.454 0-24.36-10.906-24.36-24.36s10.906-24.36 24.36-24.36zM769.774 335.893v-366.832c0-13.454 10.906-24.36 24.36-24.36s24.36 10.906 24.36 24.36v366.832c0 13.454-10.906 24.36-24.36 24.36s-24.36-10.906-24.36-24.36zM750.199 667.437c0 134.787-106.689 243.844-238.021 243.844-131.326 0-237.995-109.051-237.995-243.844s106.669-243.844 237.995-243.844c131.332 0 238.021 109.057 238.021 243.844zM798.919 667.437c0-161.458-128.26-292.564-286.741-292.564-158.478 0-286.715 131.101-286.715 292.564s128.237 292.564 286.715 292.564c158.481 0 286.741-131.106 286.741-292.564zM73.417-41.578c43.297 282.036 211.306 411.384 433.475 411.384 14.257 0 44.589-2.735 87.77-7.64 8.507-0.973 8.507-0.973 16.952-1.958 14.216-1.666 66.905-8.061 74.793-8.936 13.372-1.483 25.414 8.154 26.898 21.525s-8.154 25.414-21.525 26.898c-7.591 0.842-60.058 7.21-74.493 8.902-8.521 0.994-8.521 0.994-17.123 1.978-45.238 5.14-76.432 7.951-93.27 7.951-245.198 0-434.506-145.746-481.63-452.712-2.041-13.298 7.083-25.733 20.381-27.774s25.733 7.083 27.774 20.381z" />
<glyph unicode="&#xe912;" glyph-name="bold" d="M910.029 244.135c13.957-156.115-101.284-293.986-261.942-308.135l-402.984 1.804c-80.235 0.359-145.089 65.504-145.089 145.74v729.814c0 80.146 64.713 145.252 144.857 145.739 148.721 0.903 253.849 0.67 315.669-0.707 42.144-0.939 88.713-21.125 141.983-58.752 24.61-17.385 46.519-38.308 65.017-62.093 87.070-111.959 84.152-265.358 2.135-373.132 78.803-45.659 132.044-127.295 140.357-220.277zM668.386 402.033l15.618 46.002 0.157-48.58-8.102-0.026-7.673 2.605zM691.95 496.642l26.645-9.046c17.975-6.102 35.055-13.899 51.078-23.184-15.731-20.67-34.372-39.663-55.845-56.362-9.894-7.695-21.828-10.961-33.416-10.099-2.959 0.221-5.896 0.71-8.771 1.464-9.962 2.613-19.176 8.402-25.986 17.161-16.471 21.179-12.654 51.701 8.525 68.172 4.851 3.773 9.491 7.716 13.916 11.818 78.659 72.879 89.798 195.11 22.744 281.332-12.625 16.235-27.579 30.516-44.376 42.381-38.924 27.494-69.045 40.55-88.089 40.974-60.656 1.351-165.056 1.582-312.915 0.684-26.715-0.162-48.285-21.865-48.285-48.579v-729.814c0-26.745 21.618-48.461 48.363-48.58l398.441-1.996c102.667 9.179 178.454 99.849 169.275 202.515-6.579 73.582-55.941 136.36-125.895 160.109l-11.301 3.837-500.417-1.611c-26.83-0.087-48.65 21.593-48.737 48.424s21.593 48.65 48.424 48.737l516.622 1.663z" />
<glyph unicode="&#xe913;" glyph-name="cancel" d="M11.322 912.44l967.278-963.733c9.553-9.517 25.012-9.489 34.53 0.063s9.489 25.012-0.063 34.53l-967.278 963.733c-9.553 9.517-25.012 9.489-34.53-0.063s-9.489-25.012 0.063-34.53zM977.922 945.983l-969.621-960.459c-9.581-9.49-9.653-24.949-0.163-34.53s24.949-9.653 34.53-0.163l969.621 960.459c9.581 9.49 9.653 24.949 0.163 34.53s-24.949 9.653-34.53 0.163z" />
<glyph unicode="&#xe914;" glyph-name="add" d="M202.317 426.57h624.152c13.465 0 24.381 10.915 24.381 24.381s-10.915 24.381-24.381 24.381h-624.152c-13.465 0-24.381-10.915-24.381-24.381s10.915-24.381 24.381-24.381zM490.012 763.027v-624.152c0-13.465 10.915-24.381 24.381-24.381s24.381 10.915 24.381 24.381v624.152c0 13.465-10.915 24.381-24.381 24.381s-24.381-10.915-24.381-24.381zM512-64c-282.77 0-512 229.23-512 512s229.23 512 512 512c282.77 0 512-229.23 512-512s-229.23-512-512-512zM512-15.238c255.839 0 463.238 207.399 463.238 463.238s-207.399 463.238-463.238 463.238c-255.839 0-463.238-207.399-463.238-463.238s207.399-463.238 463.238-463.238z" />
<glyph unicode="&#xe915;" glyph-name="alarm" d="M506.138-63.624c-256.527 0-464.483 207.956-464.483 464.483s207.956 464.483 464.483 464.483c256.527 0 464.483-207.956 464.483-464.483s-207.956-464.483-464.483-464.483zM506.138-14.885c229.609 0 415.744 186.135 415.744 415.744s-186.135 415.744-415.744 415.744c-229.609 0-415.744-186.135-415.744-415.744s186.135-415.744 415.744-415.744zM233.804 950.378l-223.59-211.365c-9.78-9.246-10.214-24.669-0.969-34.45s24.669-10.214 34.45-0.969l223.59 211.365c9.78 9.246 10.214 24.669 0.969 34.45s-24.669 10.214-34.45 0.969zM762.841 911.516l217.649-198.926c9.935-9.080 25.349-8.387 34.429 1.548s8.387 25.349-1.548 34.429l-217.649 198.926c-9.935 9.080-25.349 8.387-34.429-1.548s-8.387-25.349 1.548-34.429zM518.386 616.643c0 13.459-10.91 24.37-24.37 24.37s-24.37-10.91-24.37-24.37v-311.776l234.433-34.433c13.316-1.956 25.696 7.254 27.652 20.57s-7.254 25.696-20.57 27.652l-192.776 28.314v269.672z" />
<glyph unicode="&#xe916;" glyph-name="check-box" d="M97.524 911.238c-26.931 0-48.762-21.831-48.762-48.762v-828.952c0-26.931 21.831-48.762 48.762-48.762h828.952c26.931 0 48.762 21.831 48.762 48.762v828.952c0 26.931-21.831 48.762-48.762 48.762h-828.952zM97.524 960h828.952c53.861 0 97.524-43.663 97.524-97.524v-828.952c0-53.861-43.663-97.524-97.524-97.524h-828.952c-53.861 0-97.524 43.663-97.524 97.524v828.952c0 53.861 43.663 97.524 97.524 97.524z" />
<glyph unicode="&#xe917;" glyph-name="clear" d="M282.004 604.868l439.26-319.222 238.785 328.67c15.735 21.658 10.936 51.971-10.72 67.709l-360.823 262.234c-21.658 15.74-51.974 10.942-67.714-10.717-0.001-0.001-0.002-0.004-0.004-0.005l-238.785-328.67zM725.765 375.605l-128.56-176.948-246.512 7.293-196.049 142.438 210.293 289.442 360.829-262.225zM86.931 337.662l247.373-179.726 287.067-8.492 172.104 236.882-439.26 319.222-267.284-367.885zM51.759-64h920.482c26.774 0 48.477 21.703 48.477 48.477s-21.703 48.477-48.477 48.477h-920.482c-26.774 0-48.477-21.703-48.477-48.477s21.703-48.477 48.477-48.477z" />
<glyph unicode="&#xe918;" glyph-name="code" d="M328.953 648.245c19.039 18.979 19.087 49.798 0.108 68.837s-49.798 19.087-68.837 0.108l-260.225-259.405 258.264-289.531c17.894-20.061 48.665-21.817 68.725-3.923s21.817 48.665 3.923 68.725l-196.959 220.803 194.998 194.385zM696.030 217.412c-19.062-18.954-19.15-49.775-0.195-68.837s49.775-19.15 68.837-0.195l259.328 257.859-256.249 307.632c-17.205 20.655-47.898 23.452-68.553 6.247s-23.452-47.898-6.247-68.553l199.199-239.143-196.12-195.009zM537.364 760.71l-119.103-616.182c-2.551-13.197 6.080-25.963 19.276-28.515s25.963 6.080 28.515 19.276l119.103 616.182c2.551 13.197-6.080 25.963-19.276 28.515s-25.963-6.080-28.515-19.276z" />
<glyph unicode="&#xe919;" glyph-name="app-archive" d="M517.196 682.058c-58.858 0-106.54 47.683-106.54 106.496s47.683 106.496 106.54 106.496c58.813 0 106.496-47.683 106.496-106.496s-47.683-106.496-106.496-106.496zM517.219 248.194c-58.858 0-106.54 47.683-106.54 106.496s47.683 106.496 106.54 106.496c58.813 0 106.496-47.683 106.496-106.496s-47.683-106.496-106.496-106.496zM415.612 815.009v-439.074h48.762v439.074zM568.793 809.939v-439.074h48.762v439.074zM17.962 627.81h992.275v24.381h-992.275zM97.524 911.238c-26.931 0-48.762-21.831-48.762-48.762v-828.952c0-26.931 21.831-48.762 48.762-48.762h828.952c26.931 0 48.762 21.831 48.762 48.762v828.952c0 26.931-21.831 48.762-48.762 48.762h-828.952zM97.524 960h828.952c53.861 0 97.524-43.663 97.524-97.524v-828.952c0-53.861-43.663-97.524-97.524-97.524h-828.952c-53.861 0-97.524 43.663-97.524 97.524v828.952c0 53.861 43.663 97.524 97.524 97.524z" />
<glyph unicode="&#xe91a;" glyph-name="app-filebox" d="M513.66 839.596c125.715 0 236.155-79.026 278.723-194.622 134.045-30.216 231.617-150.166 231.617-290.624 0-164.544-132.986-297.947-297.099-297.947-2.783 0.033-2.783 0.033-4.025 0l-451.831 0.99c-7.449-0.652-14.635-0.99-21.71-0.99-137.716 0-249.334 111.975-249.334 250.055 0 126.716 94.206 231.894 216.849 247.882 6.638 158.663 136.96 285.258 296.81 285.258zM750.423 616.428c-32.231 102.871-127.629 174.23-236.763 174.23-137.033 0-248.137-111.466-248.137-249.033 0-2.342 0.054-4.32 0.22-8.915l0.884-24.47-24.474-0.864c-107.59-3.796-193.212-92.545-193.212-200.919 0-111.086 89.743-201.117 200.397-201.117 5.593 0 11.361 0.271 19.624 0.897l452.675-0.931c2.768 0.080 2.768 0.080 4.386 0.045 137.932-0.012 249.042 111.447 249.042 248.997 0 121.579-87.439 224.754-205.484 245.288l-14.696 2.557-4.46 14.235zM619.294 416.824l38.776 29.856-136.939 177.852-136.939-177.852 38.776-29.856 98.162 127.492zM496.216 548.655v-345.475h48.938v345.475z" />
<glyph unicode="&#xe91b;" glyph-name="app-minder" d="M508.088-47.717c-237.966 0-430.858 193.228-430.858 431.565s192.892 431.565 430.858 431.565c237.966 0 430.858-193.228 430.858-431.565s-192.892-431.565-430.858-431.565zM508.088 1.060c211.008 0 382.082 171.371 382.082 382.789s-171.074 382.789-382.082 382.789c-211.008 0-382.082-171.371-382.082-382.789s171.074-382.789 382.082-382.789zM516.327 681.393c-72.301 0-130.934 58.735-130.934 131.162s58.633 131.162 130.934 131.162c72.301 0 130.934-58.735 130.934-131.162s-58.633-131.162-130.934-131.162zM130.934 121.524c-72.301 0-130.934 58.735-130.934 131.162s58.633 131.162 130.934 131.162c72.301 0 130.934-58.735 130.934-131.162s-58.633-131.162-130.934-131.162zM893.065 121.524c-72.301 0-130.934 58.735-130.934 131.162s58.633 131.162 130.934 131.162c72.301 0 130.934-58.735 130.934-131.162s-58.633-131.162-130.934-131.162z" />
<glyph unicode="&#xe91c;" glyph-name="app-recycle" d="M196.262 688.946c-1.288 0-2.574-0.102-3.847-0.305-13.31-2.125-22.379-14.636-20.255-27.947l104.583-655.323c1.89-11.844 12.106-20.559 24.101-20.559h434.124c12.031 0 22.269 8.768 24.116 20.658l101.845 655.323c0.193 1.241 0.29 2.493 0.29 3.748 0 13.479-10.927 24.406-24.406 24.406h-640.553zM196.262 737.758h640.553c40.436 0 73.217-32.781 73.217-73.217 0-3.765-0.291-7.524-0.869-11.244l-101.845-655.323c-5.544-35.667-36.254-61.974-72.349-61.974h-434.124c-35.983 0-66.632 26.146-72.302 61.678l-104.583 655.323c-6.373 39.931 20.832 77.468 60.764 83.841 3.816 0.609 7.674 0.915 11.539 0.915zM24.881 793.684h974.237c13.479 0 24.406 10.927 24.406 24.406s-10.927 24.406-24.406 24.406h-974.237c-13.479 0-24.406-10.927-24.406-24.406s10.927-24.406 24.406-24.406zM356.208 810.889l40.842 86.332c4.035 8.53 12.626 13.969 22.062 13.969h174.718c8.686 0 16.718-4.617 21.089-12.123l52.432-90.024 42.179 24.565-52.432 90.024c-13.115 22.518-37.21 36.368-63.269 36.368h-174.718c-28.307 0-54.080-16.318-66.185-41.907l-40.842-86.332 44.123-20.874z" />
<glyph unicode="&#xe91d;" glyph-name="app-tomato" d="M79.048 298.292c4.787-172.848 182.725-313.112 420.777-313.112 233.873 0 388.87 89.165 425.117 300.889 22.618 198.606-238.797 351.178-424.856 274.621-11.15-4.536-18.187-2.459-25.965 2.732-214.228 60.322-400.629-64.342-395.074-265.13zM973.612 279.141c-41.23-241.088-218.632-343.141-473.788-343.141-262.706 0-464.344 158.946-469.938 360.931-6.556 236.918 214.989 383.98 460.818 312.902 217.085 81.070 509.966-93.426 482.907-330.692zM337.037 689.798c-1.168 1.398 0.554 2.976 3.259 3.098-41.373 54.368-20.533 118.092-6.701 147.858-0.061-2.613 6.394-3.159 7.562-0.608-1.722-42.22 4.918-146.339 110.902-150.348 0.43 1.094 2.090 1.823 3.996 1.761 18.381 50.055-20.533 203.441 83.668 268.015 1.598-0.546 3.566-0.365 4.796 0.425 9.529-3.159 37.87-17.009-2.828-62.448-44.447-49.691-27.111-192.507-24.345-213.282 2.337 0.365 4.672-0.608 4.796-1.944 24.468 3.767 139.182 28.916 74.816 165.596-9.467 34.14 66.148-60.019 71.62-66.822 0.676-6.986 4.426-78.303-28.525-84.256-33.504-6.074 185.104 24.481 209.633 83.284 47.952-76.906-182.031-111.045-184.305-112.078 36.025-8.322 218.24-52.547 179.817-90.452-1.414 1.398-4.979 1.336-6.455-0.061-21.885 18.832-152.768 87.658-240.556 57.406 1.537-0.971 1.045-2.551-0.861-3.219 60.247-42.158 46.045-88.205 34.057-101.144-1.414 1.579-5.41 1.64-6.823 0-16.659 18.77-43.034 115.115-154.797 92.031-116.374-23.996-126.641-78.971-127.132-82.312-1.045-2.309-10.021-21.14-16.844-2.915-7.192 19.257 49.918 117.302 40.758 105.882-9.099-11.481-220.699-24.784-225.494-63.238-4.549-36.327-0.492 16.766-0.061 22.841 6.64 6.682 66.087 60.807 132.050 56.86 67.685-4.009-178.157 44.041-118.464 146.704 0.615-2.309 6.27-2.551 7.501-0.365 7.255-29.22 63.197-89.055 174.961-116.269z" />
<glyph unicode="&#xe91e;" glyph-name="app" d="M97.524 911.238c-26.931 0-48.762-21.831-48.762-48.762v-255.512c0-26.931 21.831-48.762 48.762-48.762h255.512c26.931 0 48.762 21.831 48.762 48.762v255.512c0 26.931-21.831 48.762-48.762 48.762h-255.512zM97.524 960h255.512c53.861 0 97.524-43.663 97.524-97.524v-255.512c0-53.861-43.663-97.524-97.524-97.524h-255.512c-53.861 0-97.524 43.663-97.524 97.524v255.512c0 53.861 43.663 97.524 97.524 97.524zM97.524 337.798c-26.931 0-48.762-21.831-48.762-48.762v-255.512c0-26.931 21.831-48.762 48.762-48.762h255.512c26.931 0 48.762 21.831 48.762 48.762v255.512c0 26.931-21.831 48.762-48.762 48.762h-255.512zM97.524 386.56h255.512c53.861 0 97.524-43.663 97.524-97.524v-255.512c0-53.861-43.663-97.524-97.524-97.524h-255.512c-53.861 0-97.524 43.663-97.524 97.524v255.512c0 53.861 43.663 97.524 97.524 97.524zM670.964 911.238c-26.931 0-48.762-21.831-48.762-48.762v-255.512c0-26.931 21.831-48.762 48.762-48.762h255.512c26.931 0 48.762 21.831 48.762 48.762v255.512c0 26.931-21.831 48.762-48.762 48.762h-255.512zM670.964 960h255.512c53.861 0 97.524-43.663 97.524-97.524v-255.512c0-53.861-43.663-97.524-97.524-97.524h-255.512c-53.861 0-97.524 43.663-97.524 97.524v255.512c0 53.861 43.663 97.524 97.524 97.524zM670.964 337.798c-26.931 0-48.762-21.831-48.762-48.762v-255.512c0-26.931 21.831-48.762 48.762-48.762h255.512c26.931 0 48.762 21.831 48.762 48.762v255.512c0 26.931-21.831 48.762-48.762 48.762h-255.512zM670.964 386.56h255.512c53.861 0 97.524-43.663 97.524-97.524v-255.512c0-53.861-43.663-97.524-97.524-97.524h-255.512c-53.861 0-97.524 43.663-97.524 97.524v255.512c0 53.861 43.663 97.524 97.524 97.524z" />
<glyph unicode="&#xe91f;" glyph-name="birthday" d="M646.025 2.863h353.579c13.474 0 24.396 10.922 24.396 24.396s-10.922 24.396-24.396 24.396h-353.579c-13.474 0-24.396-10.922-24.396-24.396s10.922-24.396 24.396-24.396zM131.539 532.485c0 13.474 10.922 24.396 24.396 24.396h722.964c13.474 0 24.396-10.922 24.396-24.396v-480.783h-110.979v-48.792h159.771v529.575c0 40.42-32.768 73.187-73.187 73.187h-722.964c-40.42 0-73.187-32.768-73.187-73.187v-529.575h315.963v48.792h-267.172v480.783zM498.892 382.355c-6.36-6.428-23.537-25.256-25.213-26.987-3.247-3.353-5.175-4.754-0.101-4.754-5.048 0-15.822 8.144-46.571 36.424-15.754 14.489-25.85 23.058-36.939 30.685-38.445 26.443-75.434 26.796-103.976-10.372-5.75-7.485-11.552-13.967-17.388-19.487-37.537-35.508-75.636-31.046-115.706-0.329-12.652 9.699-22.024 19.4-26.764 25.346l-38.156-30.409c7.017-8.805 19.023-21.232 35.236-33.661 57.029-43.717 120.976-51.207 178.92 3.607 7.754 7.334 15.271 15.732 22.554 25.213 10.191 13.271 18.291 13.194 37.63-0.108 8.659-5.955 17.412-13.386 31.561-26.398 45.369-41.725 55.393-49.304 79.599-49.304 13.63 0 22.203 6.229 35.155 19.607 2.421 2.5 19.355 21.063 24.84 26.607 48.46 48.974 86.824 48.506 151.663-39.692 19.059-25.931 45.565-29.187 67.543-9.68 6.479 5.751 12.386 13.057 19.438 23.318 3.568 5.19 15.694 23.867 16.792 25.519 20.193 30.368 33.458 41.463 46.377 39.3 22.218-3.714 39.188-12.446 52.055-24.666 10.047-9.543 15.487-18.794 17.257-23.773l45.971 16.348c-4.148 11.664-13.389 27.379-29.626 42.802-19.776 18.784-45.575 32.059-77.604 37.412-39.176 6.562-64.754-14.83-95.058-60.406-1.414-2.125-13.239-20.34-16.373-24.898-3.296-4.796-6.062-8.462-8.381-11.127-83.105 112.317-156.37 112.954-224.736 43.862zM232.171 762.768v-176.269c0-13.474 10.922-24.396 24.396-24.396s24.396 10.922 24.396 24.396v176.269c0 13.474-10.922 24.396-24.396 24.396s-24.396-10.922-24.396-24.396zM500.99 763.761v-176.269c0-13.474 10.922-24.396 24.396-24.396s24.396 10.922 24.396 24.396v176.269c0 13.474-10.922 24.396-24.396 24.396s-24.396-10.922-24.396-24.396zM744.481 762.768v-176.269c0-13.474 10.922-24.396 24.396-24.396s24.396 10.922 24.396 24.396v176.269c0 13.474-10.922 24.396-24.396 24.396s-24.396-10.922-24.396-24.396zM256.749 837.76c-15.742 0-28.461 12.749-28.461 28.461s12.72 28.461 28.461 28.461c15.712 0 28.461-12.749 28.461-28.461s-12.749-28.461-28.461-28.461zM525.301 837.76c-15.742 0-28.461 12.749-28.461 28.461s12.72 28.461 28.461 28.461c15.712 0 28.461-12.749 28.461-28.461s-12.749-28.461-28.461-28.461zM768.892 837.76c-15.742 0-28.461 12.749-28.461 28.461s12.72 28.461 28.461 28.461c15.712 0 28.461-12.749 28.461-28.461s-12.749-28.461-28.461-28.461zM24.396 1.318h487.672c13.474 0 24.396 10.922 24.396 24.396s-10.922 24.396-24.396 24.396h-487.672c-13.474 0-24.396-10.922-24.396-24.396s10.922-24.396 24.396-24.396z" />
<glyph unicode="&#xe920;" glyph-name="clear2" d="M870.8 434.867c40.502 0 73.336 32.834 73.336 73.336v88.521c0 40.502-32.834 73.336-73.336 73.336h-160.746c-67.379 0-122.050 54.528-122.227 121.907l-0.121 45.999c-0.106 40.427-32.908 73.144-73.336 73.144-40.964 0-73.798-32.834-73.798-73.336v-45.92c0-67.504-54.723-122.227-122.227-122.227h-151.694c-40.502 0-73.336-32.834-73.336-73.336v-88.088c0-40.502 32.834-73.336 73.336-73.336h704.147zM870.8 385.976h-704.147c-67.504 0-122.227 54.723-122.227 122.227v88.088c0 67.504 54.723 122.227 122.227 122.227h151.694c40.502 0 73.336 32.834 73.336 73.336v45.92c0 67.504 54.723 122.227 122.227 122.227 67.841 0 122.511-54.528 122.687-121.907l0.121-45.999c0.106-40.427 32.908-73.144 73.336-73.144h160.746c67.504 0 122.227-54.723 122.227-122.227v-88.521c0-67.504-54.723-122.227-122.227-122.227zM892.633 55.255c-3.864 9.797-6.446 20.053-7.681 30.513l-35.446 300.217h-679.298l-26.441-302.689c-1.202-13.76-4.728-27.216-10.426-39.796l-26.549-58.608h813.59l-27.75 70.364zM30.976-63.999l57.833 127.672c3.42 7.548 5.535 15.622 6.256 23.878l30.339 347.324h767.561l40.541-343.376c0.741-6.275 2.289-12.429 4.609-18.308l54.107-137.192h-961.248zM279.536-39.553v189.607c0 13.501-10.944 24.445-24.445 24.445s-24.445-10.944-24.445-24.445v-189.607c0-13.501 10.944-24.445 24.445-24.445s24.445 10.944 24.445 24.445zM719.553-39.553v189.607c0 13.501-10.944 24.445-24.445 24.445s-24.445-10.944-24.445-24.445v-189.607c0-13.501 10.944-24.445 24.445-24.445s24.445 10.944 24.445 24.445zM475.099-39.553v257.3c0 13.501-10.944 24.445-24.445 24.445s-24.445-10.944-24.445-24.445v-257.3c0-13.501 10.944-24.445 24.445-24.445s24.445 10.944 24.445 24.445z" />
<glyph unicode="&#xe921;" glyph-name="close-task" d="M844.634 849.414h56.191c40.262 0 72.902-32.64 72.902-72.902v-719.008c0-40.262-32.64-72.902-72.902-72.902h-777.653c-40.262 0-72.902 32.64-72.902 72.902v716.537c0 38.786 30.37 70.782 69.104 72.804l49.862 2.602-2.532 48.535-49.862-2.602c-64.556-3.369-115.172-56.695-115.172-121.339v-716.537c0-67.105 54.399-121.504 121.504-121.504h777.653c67.105 0 121.504 54.399 121.504 121.504v719.008c0 67.105-54.399 121.504-121.504 121.504h-56.191v-48.601zM212.034 911.399v-90.184h596.826v90.184h-596.826zM212.034 960.001h596.826c26.842 0 48.601-21.759 48.601-48.601v-90.184c0-26.842-21.759-48.601-48.601-48.601h-596.826c-26.842 0-48.601 21.759-48.601 48.601v90.184c0 26.842 21.759 48.601 48.601 48.601zM628.139 532.385c66.796-44.141 100.49-125.256 83.013-204.778-23.134-105.263-127.228-171.844-232.495-148.708-105.263 23.134-171.844 127.228-148.708 232.495 11.167 50.793 41.557 94 84.309 121.766 11.256 7.31 14.455 22.36 7.144 33.615s-22.36 14.455-33.615 7.144c-53.357-34.653-91.367-88.695-105.306-152.091-28.896-131.484 54.265-261.501 185.744-290.396 131.483-28.896 261.499 54.265 290.395 185.745 21.827 99.316-20.255 200.621-103.686 255.757-11.196 7.399-26.272 4.321-33.671-6.876s-4.321-26.272 6.876-33.671zM495.979 639.701v-194.406c0-13.421 10.88-24.301 24.301-24.301s24.301 10.88 24.301 24.301v194.406c0 13.421-10.88 24.301-24.301 24.301s-24.301-10.88-24.301-24.301z" />
<glyph unicode="&#xe922;" glyph-name="colour" d="M512.197 703.279l270.469-607.183c9.864-22.144 35.81-32.097 57.954-22.233s32.097 35.81 22.233 57.954l-290.448 652.036c-14.795 33.214-53.717 48.148-86.931 33.351-14.802-6.594-26.654-18.414-33.283-33.199l-290.989-648.87c-9.918-22.119-0.030-48.090 22.087-58.009s48.090-0.030 58.009 22.087l270.897 604.066zM351.133 345.805h320.025c24.242 0 43.89 19.65 43.89 43.89s-19.65 43.89-43.89 43.89h-320.025c-24.242 0-43.89-19.65-43.89-43.89s19.65-43.89 43.89-43.89z" />
<glyph unicode="&#xe923;" glyph-name="company" d="M191.609 648.297h81.378v83.505h-81.378zM404.363 648.297h81.378v83.505h-81.378zM191.609 399.085h81.378v83.505h-81.378zM404.363 397.131h81.378v83.505h-81.378zM191.609 157.091h81.378v83.505h-81.378zM404.363 157.091h81.378v83.505h-81.378zM721.879 296.37h81.378v83.505h-81.378zM723.553 99.761h81.378v83.505h-81.378zM25.319-64.745h974.837c13.445 0 24.344 10.899 24.344 24.344s-10.899 24.344-24.344 24.344h-974.837c-13.445 0-24.344-10.899-24.344-24.344s10.899-24.344 24.344-24.344zM104.812-63.221v949.444c0 13.445 10.899 24.344 24.344 24.344h419.153c13.445 0 24.344-10.899 24.344-24.344v-940.708h48.688v940.708c0 40.334-32.698 73.032-73.032 73.032h-419.153c-40.334 0-73.032-32.698-73.032-73.032v-949.444h48.688zM959.352-47.569v490.196c0 40.334-32.698 73.032-73.032 73.032h-279.61v-48.688h279.61c13.445 0 24.344-10.899 24.344-24.344v-490.196h48.688z" />
<glyph unicode="&#xe924;" glyph-name="complete-task" d="M844.634 849.414h56.191c40.262 0 72.902-32.64 72.902-72.902v-719.008c0-40.262-32.64-72.902-72.902-72.902h-777.653c-40.262 0-72.902 32.64-72.902 72.902v716.537c0 38.786 30.37 70.782 69.104 72.804l49.862 2.602-2.532 48.535-49.862-2.602c-64.556-3.369-115.172-56.695-115.172-121.339v-716.537c0-67.105 54.399-121.504 121.504-121.504h777.653c67.105 0 121.504 54.399 121.504 121.504v719.008c0 67.105-54.399 121.504-121.504 121.504h-56.191v-48.601zM245.4 360.357l153.362-148.351c28.939-27.993 75.091-27.227 103.085 1.712 2.023 2.149 2.023 2.149 3.929 4.405l309.912 377.174c8.521 10.369 7.021 25.683-3.348 34.203s-25.683 7.021-34.203-3.348l-309.912-377.174c-0.635-0.752-0.635-0.752-1.309-1.468-9.331-9.647-24.715-9.902-34.362-0.571l-153.362 148.351c-9.647 9.331-25.030 9.076-34.362-0.571s-9.076-25.030 0.571-34.362zM212.034 911.399v-90.184h596.826v90.184h-596.826zM212.034 960.001h596.826c26.842 0 48.601-21.759 48.601-48.601v-90.184c0-26.842-21.759-48.601-48.601-48.601h-596.826c-26.842 0-48.601 21.759-48.601 48.601v90.184c0 26.842 21.759 48.601 48.601 48.601z" />
<glyph unicode="&#xe925;" glyph-name="creat-note" d="M250.34 660.434h458.241c13.517 0 24.474 10.957 24.474 24.474s-10.957 24.474-24.474 24.474h-458.241c-13.517 0-24.474-10.957-24.474-24.474s10.957-24.474 24.474-24.474zM255.772 427.31h462.774c13.517 0 24.474 10.957 24.474 24.474s-10.957 24.474-24.474 24.474h-462.774c-13.517 0-24.474-10.957-24.474-24.474s10.957-24.474 24.474-24.474zM551.291 117.109h350.091c13.517 0 24.474 10.957 24.474 24.474s-10.957 24.474-24.474 24.474h-350.091c-13.517 0-24.474-10.957-24.474-24.474s10.957-24.474 24.474-24.474zM701.782 312.902v-352.428c0-13.517 10.957-24.474 24.474-24.474s24.474 10.957 24.474 24.474v352.428c0 13.517-10.957 24.474-24.474 24.474s-24.474-10.957-24.474-24.474zM647.561 959.998h-427.045c-67.584 0-122.371-54.787-122.371-122.371v-773.962c0-67.584 54.787-122.371 122.371-122.371h300.796c13.517 0 24.474 10.957 24.474 24.474s-10.957 24.474-24.474 24.474h-300.796c-40.55 0-73.422 32.873-73.422 73.422v773.962c0 40.55 32.873 73.422 73.422 73.422h444.534c0.115 0 0.228 0.001 0.343 0.002h78.735c40.55 0 73.422-32.873 73.422-73.422v-412.635c0-13.517 10.957-24.474 24.474-24.474s24.474 10.957 24.474 24.474v412.635c0 67.584-54.787 122.371-122.371 122.371h-96.225c-0.115 0-0.228-0.001-0.343-0.002z" />
<glyph unicode="&#xe926;" glyph-name="creat-task" d="M844.634 849.413h56.191c40.262 0 72.902-32.64 72.902-72.902v-719.008c0-40.262-32.64-72.902-72.902-72.902h-777.653c-40.262 0-72.902 32.64-72.902 72.902v716.537c0 38.786 30.37 70.782 69.104 72.804l49.862 2.602-2.532 48.535-49.862-2.602c-64.556-3.369-115.172-56.695-115.172-121.339v-716.537c0-67.105 54.399-121.504 121.504-121.504h777.653c67.105 0 121.504 54.399 121.504 121.504v719.008c0 67.105-54.399 121.504-121.504 121.504h-56.191v-48.601zM212.034 911.398v-90.184h596.826v90.184h-596.826zM212.034 960h596.826c26.842 0 48.601-21.759 48.601-48.601v-90.184c0-26.842-21.759-48.601-48.601-48.601h-596.826c-26.842 0-48.601 21.759-48.601 48.601v90.184c0 26.842 21.759 48.601 48.601 48.601zM287.5 394.205h446.101c13.421 0 24.301 10.88 24.301 24.301s-10.88 24.301-24.301 24.301h-446.101c-13.421 0-24.301-10.88-24.301-24.301s10.88-24.301 24.301-24.301zM486.146 640.238v-449.077c0-13.421 10.88-24.301 24.301-24.301s24.301 10.88 24.301 24.301v449.077c0 13.421-10.88 24.301-24.301 24.301s-24.301-10.88-24.301-24.301z" />
<glyph unicode="&#xe927;" glyph-name="customer-service" d="M392.152 31.248c0 18.36 15.043 33.246 33.595 33.246h106.023c18.552 0 33.595-14.887 33.595-33.246v-14.341c0-18.36-15.043-33.246-33.595-33.246h-106.023c-18.552 0-33.595 14.887-33.595 33.246v14.341zM314.613 473.368c-28.319 0-51.275 22.956-51.275 51.275s22.956 51.275 51.275 51.275c28.319 0 51.275-22.956 51.275-51.275s-22.956-51.275-51.275-51.275zM685.389 473.368c-28.319 0-51.275 22.956-51.275 51.275s22.956 51.275 51.275 51.275c28.319 0 51.275-22.956 51.275-51.275s-22.956-51.275-51.275-51.275zM512 37.041c-230.81 0-417.818 185.068-417.818 413.227 0 228.169 187.008 413.238 417.818 413.238s417.818-185.069 417.818-413.238h48.833c0 255.254-208.984 462.071-466.652 462.071s-466.652-206.817-466.652-462.071c0-255.245 208.986-462.060 466.652-462.060v48.833zM884.48 356.501v150.384c0 38.12 31.23 69.037 69.76 69.037s69.76-30.917 69.76-69.037v-150.384c0-38.131-31.23-69.037-69.76-69.037s-69.76 30.906-69.76 69.037zM0 356.501v150.384c0 38.12 31.23 69.037 69.76 69.037s69.76-30.917 69.76-69.037v-150.384c0-38.131-31.23-69.037-69.76-69.037s-69.76 30.906-69.76 69.037z" />
<glyph unicode="&#xe928;" glyph-name="cut-off-rule" d="M0 567.759h1024v-239.517h-1024v239.517z" />
<glyph unicode="&#xe929;" glyph-name="delete" d="M167.165 693.646v-635.732c0-67.331 54.583-121.914 121.914-121.914h459.297c67.331 0 121.914 54.583 121.914 121.914v635.732c0 13.466-10.916 24.383-24.383 24.383s-24.383-10.916-24.383-24.383v-635.732c0-40.398-32.75-73.148-73.148-73.148h-459.297c-40.398 0-73.148 32.75-73.148 73.148v635.732c0 13.466-10.916 24.383-24.383 24.383s-24.383-10.916-24.383-24.383zM319.223 567.027v-446.894c0-13.466 10.916-24.383 24.383-24.383s24.383 10.916 24.383 24.383v446.894c0 13.466-10.916 24.383-24.383 24.383s-24.383-10.916-24.383-24.383zM666.788 567.027v-446.894c0-13.466 10.916-24.383 24.383-24.383s24.383 10.916 24.383 24.383v446.894c0 13.466-10.916 24.383-24.383 24.383s-24.383-10.916-24.383-24.383zM493.006 567.027v-446.894c0-13.466 10.916-24.383 24.383-24.383s24.383 10.916 24.383 24.383v446.894c0 13.466-10.916 24.383-24.383 24.383s-24.383-10.916-24.383-24.383zM24.472 779.724l974.988-1.311c13.466-0.018 24.397 10.884 24.416 24.349s-10.884 24.397-24.349 24.416l-974.988 1.311c-13.466 0.018-24.397-10.884-24.416-24.349s10.884-24.397 24.349-24.416zM389.599 816.043v22.044c0 40.398 32.75 73.148 73.148 73.148h141.516c40.398 0 73.148-32.75 73.148-73.148v-21.296h48.765v21.296c0 67.331-54.583 121.914-121.914 121.914h-141.516c-67.331 0-121.914-54.583-121.914-121.914v-22.044h48.765z" />
<glyph unicode="&#xe92a;" glyph-name="delete-line-text" d="M24.612 423.616h974.776c13.593 0 24.612 11.019 24.612 24.612s-11.019 24.612-24.612 24.612h-974.776c-13.593 0-24.612-11.019-24.612-24.612s11.019-24.612 24.612-24.612zM525.755 400.023c160.871 0 285.145-78.977 285.145-163.274 0-84.302-124.28-163.29-285.145-163.29s-285.145 78.988-285.145 163.29c0 27.186-22.038 49.224-49.224 49.224s-49.224-22.038-49.224-49.224c0-150.427 175.135-261.737 383.593-261.737s383.593 111.31 383.593 261.737c0 150.426-175.132 261.722-383.593 261.722-27.186 0-49.224-22.038-49.224-49.224s22.038-49.224 49.224-49.224zM525.755 498.471c-161.676 0-285.145 77.201-285.145 160.796 0 84.297 124.275 163.274 285.145 163.274s285.145-78.977 285.145-163.274c0-27.186 22.038-49.224 49.224-49.224s49.224 22.038 49.224 49.224c0 150.426-175.132 261.722-383.593 261.722s-383.593-111.297-383.593-261.722c0-150.182 174.425-259.244 383.593-259.244 27.186 0 49.224 22.038 49.224 49.224s-22.038 49.224-49.224 49.224z" />
<glyph unicode="&#xe92b;" glyph-name="download" d="M118.404 488.951c-10.424 8.5-25.764 6.941-34.266-3.482s-6.941-25.764 3.482-34.266l415.894-339.158 434.91 338.819c10.611 8.266 12.511 23.569 4.245 34.179s-23.569 12.511-34.179 4.245l-404.282-314.959-385.805 314.62zM482.452 935.647v-787.691c0-13.451 10.903-24.354 24.354-24.354s24.354 10.903 24.354 24.354v787.691c0 13.451-10.903 24.354-24.354 24.354s-24.354-10.903-24.354-24.354zM3.698 256.401v-198.631c0-67.252 54.518-121.77 121.77-121.77h773.065c67.252 0 121.77 54.518 121.77 121.77v198.631c0 13.451-10.903 24.354-24.354 24.354s-24.354-10.903-24.354-24.354v-198.631c0-40.35-32.711-73.062-73.062-73.062h-773.065c-40.35 0-73.062 32.711-73.062 73.062v198.631c0 13.451-10.903 24.354-24.354 24.354s-24.354-10.903-24.354-24.354z" />
<glyph unicode="&#xe92c;" glyph-name="edit-subplan" d="M973.993 427.154v-416.949c0-13.449-10.902-24.35-24.35-24.35h-876.592c-13.449 0-24.35 10.902-24.35 24.35v872.984c0 13.449 10.902 24.35 24.35 24.35h388.67c13.449 0 24.35 10.902 24.35 24.35s-10.902 24.35-24.35 24.35h-388.67c-40.345 0-73.051-32.707-73.051-73.051v-872.984c0-40.345 32.707-73.051 73.051-73.051h876.592c40.345 0 73.051 32.707 73.051 73.051v416.949c0 13.449-10.902 24.35-24.35 24.35s-24.35-10.902-24.35-24.35zM1014.428 758.192c9.542-9.493 9.571-24.927 0.067-34.458l-444.978-446.168c-3.63-3.639-8.319-6.038-13.396-6.85l-227.711-36.417c-16.329-2.611-30.456 11.464-27.904 27.803l35.553 227.596c0.794 5.088 3.182 9.791 6.818 13.437l444.978 446.168c9.488 9.514 24.89 9.544 34.415 0.067l192.159-191.179zM805.162 897.693l-422.209-423.338-29.161-186.676 186.827 29.879 422.177 423.305-157.634 156.83zM664.894 793.697l187.328-187.133c9.514-9.505 24.932-9.496 34.437 0.018s9.496 24.932-0.018 34.437l-187.328 187.133c-9.514 9.505-24.932 9.496-34.437-0.018s-9.496-24.932 0.018-34.437z" />
<glyph unicode="&#xe92d;" glyph-name="edit-tab" d="M806.891 485.479l-259.475 251.489c-9.675 9.377-25.121 9.136-34.498-0.54s-9.136-25.121 0.54-34.498l259.475-251.489c9.675-9.377 25.121-9.136 34.498 0.54s9.136 25.121-0.54 34.498zM730.386 948.389l293.614-282.357-658.417-652.442-365.583-65.979 67.257 369.081 663.128 631.698zM730.226 880.85l-617.814-588.531-51.786-284.184 281.379 50.782 612.148 606.594-223.926 215.341z" />
<glyph unicode="&#xe92e;" glyph-name="email" d="M25.083 694.16l-25.083-41.659 520.236-313.239 503.764 316.321-25.859 41.182-478.439-300.419zM99.333 787.425c-26.857 0-48.628-21.771-48.628-48.628v-581.594c0-26.857 21.771-48.628 48.628-48.628h826.679c26.857 0 48.628 21.771 48.628 48.628v581.594c0 26.857-21.771 48.628-48.628 48.628h-826.679zM99.333 836.053h826.679c53.713 0 97.256-43.543 97.256-97.256v-581.594c0-53.713-43.543-97.256-97.256-97.256h-826.679c-53.713 0-97.256 43.543-97.256 97.256v581.594c0 53.713 43.543 97.256 97.256 97.256z" />
<glyph unicode="&#xe92f;" glyph-name="empty-task-description" d="M844.634 849.414h56.191c40.262 0 72.902-32.64 72.902-72.902v-719.008c0-40.262-32.64-72.902-72.902-72.902h-777.653c-40.262 0-72.902 32.64-72.902 72.902v716.537c0 38.786 30.37 70.782 69.104 72.804l49.862 2.602-2.532 48.535-49.862-2.602c-64.556-3.369-115.172-56.695-115.172-121.339v-716.537c0-67.105 54.399-121.504 121.504-121.504h777.653c67.105 0 121.504 54.399 121.504 121.504v719.008c0 67.105-54.399 121.504-121.504 121.504h-56.191v-48.601zM212.034 911.399v-90.184h596.826v90.184h-596.826zM212.034 960.001h596.826c26.842 0 48.601-21.759 48.601-48.601v-90.184c0-26.842-21.759-48.601-48.601-48.601h-596.826c-26.842 0-48.601 21.759-48.601 48.601v90.184c0 26.842 21.759 48.601 48.601 48.601z" />
<glyph unicode="&#xe930;" glyph-name="error" d="M523.314 490.146l-235.745 234.881c-9.539 9.504-24.976 9.475-34.48-0.063s-9.475-24.976 0.063-34.48l235.518-234.655-237.079-234.838c-9.567-9.476-9.639-24.913-0.163-34.48s24.913-9.639 34.48-0.163l237.306 235.064 237.023-236.154c9.539-9.504 24.976-9.475 34.48 0.063s9.475 24.976-0.063 34.48l-236.795 235.927 236.362 234.129c9.567 9.476 9.639 24.913 0.163 34.48s-24.913 9.639-34.48 0.163l-236.59-234.355zM512-64c-282.77 0-512 229.23-512 512s229.23 512 512 512c282.77 0 512-229.23 512-512s-229.23-512-512-512z" />
<glyph unicode="&#xe931;" glyph-name="extended-function" d="M512-64.211c-282.77 0-512 229.23-512 512s229.23 512 512 512c282.77 0 512-229.23 512-512s-229.23-512-512-512zM512-15.449c255.839 0 463.238 207.399 463.238 463.238s-207.399 463.238-463.238 463.238c-255.839 0-463.238-207.399-463.238-463.238s207.399-463.238 463.238-463.238zM303.664 561.15l-34.067-34.888 251.463-245.548 269.584 244.948-32.792 36.089-235.589-214.058z" />
<glyph unicode="&#xe932;" glyph-name="face" d="M512-66.951c-282.77 0-512 229.23-512 512s229.23 512 512 512c282.77 0 512-229.23 512-512s-229.23-512-512-512zM512-18.189c255.839 0 463.238 207.399 463.238 463.238s-207.399 463.238-463.238 463.238c-255.839 0-463.238-207.399-463.238-463.238s207.399-463.238 463.238-463.238zM259.141 311.352c10.127-20.275 30.304-49.379 61.664-78.396 52.595-48.665 118.55-78.008 197.977-77.88 79.399 0.129 143.949 29.346 194.090 77.681 30.082 28.998 48.854 58.088 57.986 78.415 5.518 12.282 0.035 26.713-12.249 32.231s-26.713 0.035-32.231-12.249c-1.51-3.361-5.070-10.038-10.798-18.913-9.746-15.104-21.902-30.258-36.55-44.379-41.527-40.031-94.302-63.919-160.327-64.026-66.233-0.107-120.708 24.129-164.782 64.91-15.5 14.342-28.557 29.735-39.194 45.080-6.262 9.032-10.231 15.845-11.963 19.315-6.017 12.046-20.66 16.933-32.706 10.917s-16.933-20.66-10.917-32.706zM390.095 618.667c0-26.931-21.831-48.762-48.762-48.762s-48.762 21.831-48.762 48.762c0 26.931 21.831 48.762 48.762 48.762s48.762-21.831 48.762-48.762zM731.429 618.667c0-26.931-21.831-48.762-48.762-48.762s-48.762 21.831-48.762 48.762c0 26.931 21.831 48.762 48.762 48.762s48.762-21.831 48.762-48.762z" />
<glyph unicode="&#xe933;" glyph-name="filed" d="M897.681 646.005l-370.872 143.739-384.743-138.45 370.845-143.739 384.77 138.45zM7.878 652.925l519.541 186.959 504.459-195.514-519.577-186.959-504.423 195.514zM83.159 466.369c-12.094 4.688-25.7-1.317-30.387-13.411s1.317-25.7 13.411-30.387l445.817-172.798 460.431 165.676c12.205 4.392 18.539 17.846 14.147 30.051s-17.846 18.539-30.051 14.147l-443.916-159.734-429.451 166.455zM83.159 259.501c-12.094 4.688-25.7-1.317-30.387-13.411s1.317-25.7 13.411-30.387l445.817-172.798 460.431 165.676c12.205 4.392 18.539 17.846 14.147 30.051s-17.846 18.539-30.051 14.147l-443.916-159.734-429.451 166.455z" />
<glyph unicode="&#xe934;" glyph-name="form" d="M48.762 788.552v-681.104h926.476v681.104h-926.476zM48.762 837.314h926.476c26.931 0 48.762-21.831 48.762-48.762v-681.104c0-26.931-21.831-48.762-48.762-48.762h-926.476c-26.931 0-48.762 21.831-48.762 48.762v681.104c0 26.931 21.831 48.762 48.762 48.762zM48.762 803.18h892.343c26.931 0 48.762-21.831 48.762-48.762v-82.248h-989.867v82.248c0 26.931 21.831 48.762 48.762 48.762zM18.563 471.599h981.813v48.762h-981.813zM348.648 78.815v663.412h-48.762v-663.412zM689.981 75.748v666.48h-48.762v-666.48zM30.331 266.799h970.044v48.762h-970.044z" />
<glyph unicode="&#xe935;" glyph-name="format-paint" d="M593.177 356.661v0 0c47.118 0 85.314-38.196 85.314-85.314v-250.033c0-47.118-38.196-85.314-85.314-85.314v0 0c-47.118 0-85.314 38.196-85.314 85.314v250.033c0 47.118 38.196 85.314 85.314 85.314zM182.993 960.001h562.814c53.848 0 97.501-43.653 97.501-97.501v-180.378c0-53.848-43.653-97.501-97.501-97.501h-562.814c-53.848 0-97.501 43.653-97.501 97.501v180.378c0 53.848 43.653 97.501 97.501 97.501zM618.322 340.522l0.511 55.861c0 40.386 32.74 73.126 73.126 73.126h124.672c67.311 0 121.877 54.566 121.877 121.877l-1.001 253.778c-0.054 13.462-11.009 24.332-24.472 24.279s-24.332-11.009-24.279-24.472l1-253.298c0-40.675-32.739-73.414-73.126-73.414h-124.672c-67.311 0-121.877-54.566-121.877-121.877l-0.511-55.861c0-13.462 10.913-24.375 24.375-24.375s24.375 10.913 24.375 24.375z" />
<glyph unicode="&#xe936;" glyph-name="four-quadrant" d="M6.866 413.379h1009.942v48.762h-1009.942zM494.504 951.562v-1015.095h48.762v1015.095zM97.524 911.238c-26.931 0-48.762-21.831-48.762-48.762v-828.952c0-26.931 21.831-48.762 48.762-48.762h828.952c26.931 0 48.762 21.831 48.762 48.762v828.952c0 26.931-21.831 48.762-48.762 48.762h-828.952zM97.524 960h828.952c53.861 0 97.524-43.663 97.524-97.524v-828.952c0-53.861-43.663-97.524-97.524-97.524h-828.952c-53.861 0-97.524 43.663-97.524 97.524v828.952c0 53.861 43.663 97.524 97.524 97.524zM267.699 619.035c45.133 0 80.457 34.714 80.457 80.457 0 44.212-36.245 80.457-80.457 80.457s-80.457-36.245-80.457-80.457c0-44.212 36.245-80.457 80.457-80.457zM267.699 584.901c-63.064 0-114.59 51.526-114.59 114.59s51.526 114.59 114.59 114.59c63.064 0 114.59-51.526 114.59-114.59 0-64.729-50.737-114.59-114.59-114.59zM814.324 706.699c0-26.931-21.831-48.762-48.762-48.762s-48.762 21.831-48.762 48.762c0 26.931 21.831 48.762 48.762 48.762s48.762-21.831 48.762-48.762zM814.324 194.699c0-26.931-21.831-48.762-48.762-48.762s-48.762 21.831-48.762 48.762c0 26.931 21.831 48.762 48.762 48.762s48.762-21.831 48.762-48.762zM267.856 156.36c26.931 0 48.762 21.714 48.762 48.501s-21.831 48.501-48.762 48.501c-26.931 0-48.762-21.714-48.762-48.501s21.831-48.501 48.762-48.501z" />
<glyph unicode="&#xe937;" glyph-name="headline" d="M117.257 910.399v-924.971c0-26.958 21.853-48.811 48.811-48.811s48.811 21.853 48.811 48.811v924.971c0 26.958-21.853 48.811-48.811 48.811s-48.811-21.853-48.811-48.811zM809.122 911.189v-926.378c0-26.958 21.853-48.811 48.811-48.811s48.811 21.853 48.811 48.811v926.378c0 26.958-21.853 48.811-48.811 48.811s-48.811-21.853-48.811-48.811zM134.34 399.293h747.706v97.622h-747.706z" />
<glyph unicode="&#xe938;" glyph-name="home" d="M512.025 891.652l468.345-491.134c9.239-9.689 24.582-10.053 34.27-0.814s10.053 24.582 0.814 34.27l-503.479 527.979-502.057-528.004c-9.225-9.702-8.838-25.044 0.863-34.269s25.044-8.838 34.269 0.863l466.975 491.109zM824.823-11.068h-634.68l0.78 440.71c0.024 13.387-10.81 24.258-24.197 24.282s-24.258-10.81-24.282-24.197l-0.866-489.275h731.639l0.865 491.223c0.024 13.387-10.81 24.258-24.197 24.282s-24.258-10.81-24.282-24.197l-0.78-442.829zM591.351 170.513v-222.501h48.479v270.717l-253.051 1.376v-272.094h48.479v223.351z" />
<glyph unicode="&#xe939;" glyph-name="horizontal-align" d="M0.347 862.476h619.945v97.524h-619.945zM0.347 564.681h883.844v97.524h-883.844zM0.347 233.797h744.746v97.524h-744.746zM0.347-64h1023.306v97.524h-1023.306z" />
<glyph unicode="&#xe93a;" glyph-name="icloud-drive" d="M1020.852 350.537c0-164.523-132.969-297.908-297.060-297.908-2.782 0.033-2.782 0.033-4.025 0l-451.921 0.99c-7.449-0.652-14.632-0.99-21.706-0.99-137.69 0-249.287 111.954-249.287 250.007 0 126.719 94.227 231.894 216.885 247.844 6.599 158.679 136.919 285.299 296.774 285.299 125.715 0 236.155-79.037 278.705-194.644 134.052-30.194 231.637-150.14 231.637-290.599zM747.405 612.69c-32.249 102.927-127.7 174.326-236.894 174.326-137.11 0-248.274-111.527-248.274-249.17 0-2.344 0.054-4.323 0.219-8.918l0.881-24.386-24.386-0.861c-107.66-3.798-193.337-92.604-193.337-201.048 0-111.157 89.8-201.245 200.525-201.245 5.596 0 11.369 0.271 19.627 0.898l452.762-0.931c2.763 0.080 2.763 0.080 4.38 0.045 138.010-0.012 249.181 111.508 249.181 249.135 0 121.645-87.488 224.879-205.598 245.424l-14.643 2.548-4.444 14.183z" />
<glyph unicode="&#xe93b;" glyph-name="invisible" d="M513.205 197.161c-222.342 0-512 150.446-512 251.939 0 99.103 302.802 255.72 512 255.72 203.53 0 512-163.685 512-255.72 0-94.5-295.316-251.939-512-251.939zM513.205 245.986c102.921 0 218.785 33.877 320.581 88.146 82.743 44.112 142.595 97.069 142.595 114.967 0 17.158-63.327 71.27-149.198 116.836-104.007 55.191-219.060 90.059-313.977 90.059-185.764 0-463.175-143.485-463.175-206.895 0-65.859 264.261-203.114 463.175-203.114zM506.057 315.683c-79.818 0-144.523 64.705-144.523 144.523s64.705 144.523 144.523 144.523c79.818 0 144.523-64.705 144.523-144.523s-64.705-144.523-144.523-144.523zM506.057 364.509c52.852 0 95.698 42.845 95.698 95.698s-42.845 95.698-95.698 95.698c-52.852 0-95.698-42.845-95.698-95.698s42.845-95.698 95.698-95.698zM887.89 829.494l-794.218-703.775c-10.090-8.941-11.023-24.371-2.081-34.461s24.371-11.023 34.461-2.081l794.218 703.775c10.090 8.941 11.023 24.371 2.081 34.461s-24.371 11.023-34.461 2.081z" />
<glyph unicode="&#xe93c;" glyph-name="issued" d="M51.616 306.188l91.684 212.758c11.478 26.634 37.7 43.888 66.702 43.888h125.81c13.371 0 24.211 10.839 24.211 24.211s-10.839 24.211-24.211 24.211h-125.81c-48.337 0-92.041-28.756-111.17-73.147l-91.684-212.758c-5.291-12.279 0.374-26.524 12.653-31.816s26.524 0.374 31.816 12.653zM1020.644 325.204l-85.754 202.654c-18.95 44.783-62.857 73.879-111.483 73.879h-125.354c-13.371 0-24.211-10.839-24.211-24.211s10.839-24.211 24.211-24.211h125.354c29.176 0 55.52-17.458 66.89-44.328l85.754-202.654c5.211-12.315 19.417-18.073 31.732-12.862s18.073 19.417 12.862 31.732zM92.892 346.996c-21.46 0-38.869-17.425-38.869-38.933v-278.381c0-21.515 17.417-38.956 38.869-38.956h841.953c21.453 0 38.869 17.44 38.869 38.956v278.381c0 21.508-17.41 38.933-38.869 38.933h-137.533c-12.083-22.5-31.998-50.704-60.864-78.847-59.256-57.77-136.017-92.598-231.094-92.598-95.221 0-170.711 34.966-227.609 92.981-27.418 27.956-46.040 55.968-57.217 78.464h-127.639zM934.846-57.696h-841.953c-48.21 0-87.291 39.134-87.291 87.377v278.381c0 48.24 39.080 87.355 87.291 87.355h159.839l6.024-15.382c1.654-4.223 5.57-12.455 11.974-23.345 10.862-18.472 24.662-36.995 41.588-54.253 48.192-49.138 111.506-78.464 193.039-78.464 81.697 0 146.64 29.464 197.292 78.847 17.801 17.355 32.512 35.976 44.266 54.546 6.933 10.954 11.251 19.247 13.118 23.526l6.34 14.525h168.472c48.211 0 87.291-39.113 87.291-87.355v-278.381c0-48.243-39.081-87.377-87.291-87.377zM494.427 900.964v-536.98c0-13.371 10.839-24.211 24.211-24.211s24.211 10.839 24.211 24.211v536.98c0 13.371-10.839 24.211-24.211 24.211s-24.211-10.839-24.211-24.211zM658.975 741.834c9.376-9.534 24.704-9.663 34.238-0.287s9.663 24.704 0.287 34.238l-173.476 176.412-179.659-176.097c-9.549-9.359-9.702-24.688-0.343-34.238s24.688-9.702 34.238-0.343l145.135 142.258 139.581-141.943z" />
<glyph unicode="&#xe93d;" glyph-name="italic" d="M588.987 912.541l-257.614-926.030h93.539l257.614 926.030zM251.645-63.999h322.048c26.761 0 48.454 21.693 48.454 48.454s-21.693 48.454-48.454 48.454h-322.048c-26.761 0-48.454-21.693-48.454-48.454s21.693-48.454 48.454-48.454zM450.308 863.092h322.048c26.761 0 48.454 21.693 48.454 48.454s-21.693 48.454-48.454 48.454h-322.048c-26.761 0-48.454-21.693-48.454-48.454s21.693-48.454 48.454-48.454z" />
<glyph unicode="&#xe93e;" glyph-name="jurisdiction" d="M360.986 235.562c-199.435 0-361.109 161.674-361.109 361.109s161.674 361.109 361.109 361.109c199.435 0 361.109-161.674 361.109-361.109s-161.674-361.109-361.109-361.109zM360.986 284.348c172.491 0 312.324 139.833 312.324 312.324s-139.833 312.324-312.324 312.324c-172.491 0-312.324-139.833-312.324-312.324s139.833-312.324 312.324-312.324zM860.522 0.752l-302.994 313.483c-9.363 9.687-24.805 9.949-34.492 0.587s-9.949-24.805-0.587-34.492l334.955-346.55 152.324 130.766c10.222 8.776 11.395 24.175 2.619 34.396s-24.175 11.395-34.396 2.619l-117.43-100.81zM722.098 118.741l121.832 109.438c10.021 9.003 10.848 24.425 1.846 34.447s-24.425 10.848-34.447 1.846l-121.832-109.438c-10.021-9.003-10.848-24.425-1.846-34.447s24.425-10.848 34.447-1.846z" />
<glyph unicode="&#xe93f;" glyph-name="launch" d="M0 812.387h1024v145.755h-1024zM3.675 375.123h748.058v145.755h-748.058zM3.178-62.141h454.46v145.755h-454.46z" />
<glyph unicode="&#xe940;" glyph-name="left-align" d="M1024 423.712h-1022.616v97.15h1022.616zM1022.3 860.889h-1022.299v97.15h1022.299zM1020.035-62.040h-1014.752v97.15h1014.752zM630.72 666.588h-627.046v97.15h627.046zM630.72 180.836h-627.046v97.15h627.046z" />
<glyph unicode="&#xe941;" glyph-name="left-retraction-copy" d="M0.404 862.59h1020.103v97.17h-1020.103zM0.381-63.76h1019.61v97.17h-1019.61zM499.627 221.271h520.678v97.17h-520.678zM499.627 577.559h524.373v97.17h-524.373zM400.377 213.353l3.798 475.948-404.175-234.025z" />
<glyph unicode="&#xe942;" glyph-name="link" d="M52.821 661.269l260.853-260.853 243.649 243.649-260.853 260.853-243.649-243.649zM591.351 678.090c18.793-18.793 18.793-49.262 0-68.056l-243.649-243.649c-18.793-18.793-49.262-18.793-68.056 0l-260.853 260.853c-18.793 18.793-18.793 49.262 0 68.056l243.649 243.649c18.793 18.793 49.262 18.793 68.056 0l260.853-260.853zM460.153 255.289l264.203-264.203 246.823 246.823-264.203 264.203-246.823-246.823zM1005.206 271.936c18.793-18.793 18.793-49.262 0-68.056l-246.823-246.823c-18.793-18.793-49.262-18.793-68.056 0l-264.203 264.203c-18.793 18.793-18.793 49.262 0 68.056l246.823 246.823c18.793 18.793 49.262 18.793 68.056 0l264.203-264.203zM306.048 585.92l329.759-363.835c17.849-19.693 48.281-21.188 67.973-3.339s21.188 48.281 3.339 67.973l-329.759 363.835c-17.849 19.693-48.281 21.188-67.973 3.339s-21.188-48.281-3.339-67.973z" />
<glyph unicode="&#xe943;" glyph-name="logout" d="M759.388 286.444l31.675-37.064 233.193 199.297-233.859 185.968-30.346-38.16 187.576-149.163zM996.768 472.377h-768.706v-48.755h768.706zM681.794 120.169v-65.379c0-40.389-32.743-73.132-73.132-73.132h-485.1c-40.389 0-73.132 32.743-73.132 73.132v780.226c0 40.389 32.743 73.132 73.132 73.132h485.1c40.389 0 73.132-32.743 73.132-73.132v-71.7c0-13.464 10.914-24.377 24.377-24.377s24.377 10.914 24.377 24.377v71.7c0 67.316-54.571 121.887-121.887 121.887h-485.1c-67.316 0-121.887-54.571-121.887-121.887v-780.226c0-67.316 54.571-121.887 121.887-121.887h485.1c67.316 0 121.887 54.571 121.887 121.887v65.379c0 13.464-10.914 24.377-24.377 24.377s-24.377-10.914-24.377-24.377z" />
<glyph unicode="&#xe944;" glyph-name="member" d="M514.065 281.217c-187.21 0-338.952 152.086-338.952 339.666s151.741 339.666 338.952 339.666c187.21 0 338.952-152.086 338.952-339.666s-151.741-339.666-338.952-339.666zM514.065 330.032c160.227 0 290.138 130.206 290.138 290.851s-129.911 290.851-290.138 290.851c-160.227 0-290.138-130.206-290.138-290.851s129.911-290.851 290.138-290.851zM122.377-50.425c4.588 6.148 13.913 17.427 27.634 32.118 23.060 24.688 49.867 49.41 80.055 72.46 205.56 156.952 438.064 156.952 687.023-106.737 9.254-9.801 24.702-10.246 34.503-0.992s10.246 24.702 0.992 34.503c-267.391 283.212-527.936 283.212-752.141 112.024-32.485-24.804-61.274-51.354-86.104-77.937-8.726-9.342-16.35-18.043-22.838-25.89-3.973-4.806-6.735-8.328-8.246-10.354-8.062-10.803-5.84-26.096 4.964-34.158s26.096-5.84 34.158 4.964z" />
<glyph unicode="&#xe945;" glyph-name="micro-blog" d="M626.156 612.211c22.97 7.551 45.44 13.632 66.758 17.709 35.137 6.72 65.39 7.729 89.925 1.246 53.389-14.11 77.317-52.367 75.58-102.539-0.718-20.743-5.692-42.276-13.49-63.733-0.398-1.095-0.796-2.172-1.194-3.229 41.78-10.82 74.989-32.71 100.139-62.519 22.185-26.295 33.901-52.623 38.423-71.048 37.28-146.063-42.75-246.201-198.297-305.503-54.038-20.602-114.302-35.136-176.863-44.687-40.248-6.144-75.472-9.366-99.294-10.421-49.604-2.196-148.237 9.636-231.877 37.474-133.616 44.473-223.112 123.152-242.992 243.503-37.397 226.399 236.364 485.893 426.814 502.33 79.085 6.825 124.059-32.359 137.418-97.691 3.338-16.323 4.512-33.085 4.105-49.562 8.014 2.96 16.323 5.871 24.843 8.672zM554.010 582.89c2.43 20.051 2.411 41.52-1.582 61.056-8.977 43.906-34.338 66.002-88.707 61.309-166.524-14.372-418.106-252.843-385.648-449.343 16.621-100.628 93.166-167.922 212.331-207.584 44.301-14.745 91.874-24.647 139.247-30.33 32.441-3.891 63.181-5.425 76.173-4.85 22.278 0.986 55.898 4.062 94.419 9.943 59.595 9.098 116.826 22.9 167.479 42.212 136.389 51.997 200.679 132.44 170.242 251.693-0.644 2.621-2.466 8.126-5.757 15.523-5.631 12.654-13.304 25.347-23.263 37.152-23.656 28.038-56.319 46.778-100.497 52.24l-33.174 4.102 15.861 29.424c2.561 4.749 6.683 13.631 10.84 25.069 6.294 17.318 10.238 34.396 10.768 49.703 1.044 30.192-10.429 48.536-41.579 56.769-16.651 4.4-40.647 3.6-69.662-1.949-19.203-3.672-39.835-9.255-61.068-16.236-14.257-4.687-27.918-9.716-40.477-14.739-7.482-2.993-12.879-5.294-15.691-6.556l-40.564-18.197 8.809 43.577c0.333 1.647 0.906 5.113 1.5 10.015zM731.365 243.234c0 88.768-113.378 164.997-256.532 164.997-143.152 0-256.52-76.227-256.52-164.997s113.368-164.997 256.52-164.997c143.154 0 256.532 76.229 256.532 164.997zM777.072 243.234c0-118.734-136.79-210.704-302.239-210.704s-302.227 91.968-302.227 210.704 136.779 210.704 302.227 210.704c165.45 0 302.239-91.97 302.239-210.704zM512.177 226.801c0 23.65-18.724 42.682-41.619 42.682s-41.619-19.032-41.619-42.682c0-23.65 18.724-42.682 41.619-42.682s41.619 19.032 41.619 42.682zM557.884 226.801c0-48.728-39.018-88.389-87.326-88.389s-87.326 39.661-87.326 88.389c0 48.728 39.018 88.389 87.326 88.389s87.326-39.661 87.326-88.389zM666.908 728.263c3.942 3.245 11.821 8.658 22.437 14.138 27.4 14.144 54.786 18.77 79.098 9.414 18.663-7.183 35.887-22.664 51.254-48.645 6.425-10.863 20.441-14.461 31.305-8.036s14.461 20.441 8.036 31.305c-20.383 34.462-45.418 56.964-74.178 68.033-38.605 14.858-78.591 8.102-116.48-11.456-13.795-7.121-24.258-14.309-30.521-19.464-9.745-8.022-11.141-22.424-3.12-32.169s22.424-11.141 32.169-3.12zM584.612 812.552c2.093 1.739 6.46 5.086 12.813 9.506 10.776 7.497 22.99 15.019 36.343 22.034 55.791 29.309 112.261 40.476 163.554 24.060 42.226-13.515 80.048-45.592 112.39-100.272 6.425-10.863 20.441-14.462 31.304-8.037s14.462 20.441 8.037 31.304c-37.814 63.933-84.404 103.446-137.798 120.535-65.015 20.808-133.136 7.337-198.742-27.128-15.12-7.943-28.931-16.448-41.191-24.978-7.469-5.197-12.856-9.328-15.909-11.863-9.71-8.063-11.045-22.472-2.982-32.182s22.472-11.045 32.182-2.982z" />
<glyph unicode="&#xe946;" glyph-name="mobile-article" d="M26.72 423.619l714.526 4.046c13.465 0.076 24.319 11.054 24.243 24.519s-11.054 24.319-24.519 24.243l-714.526-4.046c-13.465-0.076-24.319-11.054-24.243-24.519s11.054-24.319 24.519-24.243zM48.873 677.165v160.076c0 40.395 32.748 73.143 73.143 73.143h780.19c40.395 0 73.143-32.748 73.143-73.143v-780.19c0-40.395-32.748-73.143-73.143-73.143h-780.19c-40.395 0-73.143 32.748-73.143 73.143v153.050c0 13.465-10.915 24.381-24.381 24.381s-24.381-10.915-24.381-24.381v-153.050c0-67.326 54.579-121.905 121.905-121.905h780.19c67.326 0 121.905 54.579 121.905 121.905v780.19c0 67.326-54.579 121.905-121.905 121.905h-780.19c-67.326 0-121.905-54.579-121.905-121.905v-160.076c0-13.465 10.915-24.381 24.381-24.381s24.381 10.915 24.381 24.381zM504.386 296.224c-10.886-7.926-13.285-23.175-5.358-34.061s23.175-13.285 34.061-5.358l260.751 189.857-259.452 217.188c-10.325 8.643-25.702 7.28-34.345-3.045s-7.28-25.702 3.045-34.345l211.588-177.12-210.289-153.114z" />
<glyph unicode="&#xe947;" glyph-name="modify-title" d="M846.187 847.729h56.191c40.262 0 72.902-32.64 72.902-72.902v-719.008c0-40.262-32.64-72.902-72.902-72.902h-777.653c-40.262 0-72.902 32.64-72.902 72.902v716.537c0 38.786 30.37 70.782 69.104 72.804l49.862 2.602-2.532 48.535-49.862-2.602c-64.556-3.369-115.172-56.695-115.172-121.339v-716.537c0-67.105 54.399-121.504 121.504-121.504h777.653c67.105 0 121.504 54.399 121.504 121.504v719.008c0 67.105-54.399 121.504-121.504 121.504h-56.191v-48.601zM349.084 565.017h331.061c13.421 0 24.301 10.88 24.301 24.301s-10.88 24.301-24.301 24.301h-331.061c-13.421 0-24.301-10.88-24.301-24.301s10.88-24.301 24.301-24.301zM490.028 560.157v-342.41c0-13.421 10.88-24.301 24.301-24.301s24.301 10.88 24.301 24.301v342.41c0 13.421-10.88 24.301-24.301 24.301s-24.301-10.88-24.301-24.301zM213.587 909.714v-90.184h596.826v90.184h-596.826zM213.587 958.316h596.826c26.842 0 48.601-21.759 48.601-48.601v-90.184c0-26.842-21.759-48.601-48.601-48.601h-596.826c-26.842 0-48.601 21.759-48.601 48.601v90.184c0 26.842 21.759 48.601 48.601 48.601z" />
<glyph unicode="&#xe948;" glyph-name="more-functions" d="M512-68.005c-282.77 0-512 229.23-512 512s229.23 512 512 512c282.77 0 512-229.23 512-512s-229.23-512-512-512zM512-19.243c255.839 0 463.238 207.399 463.238 463.238s-207.399 463.238-463.238 463.238c-255.839 0-463.238-207.399-463.238-463.238s207.399-463.238 463.238-463.238zM291.14 399.238c26.931 0 48.762 21.831 48.762 48.762s-21.831 48.762-48.762 48.762c-26.931 0-48.762-21.831-48.762-48.762s21.831-48.762 48.762-48.762zM534.95 399.238c26.931 0 48.762 21.831 48.762 48.762s-21.831 48.762-48.762 48.762c-26.931 0-48.762-21.831-48.762-48.762s21.831-48.762 48.762-48.762zM778.76 399.238c26.931 0 48.762 21.831 48.762 48.762s-21.831 48.762-48.762 48.762c-26.931 0-48.762-21.831-48.762-48.762s21.831-48.762 48.762-48.762z" />
<glyph unicode="&#xe949;" glyph-name="move-note" d="M80.546 834.854v-780.641c0-66.934 54.261-121.195 121.195-121.195h638.575c13.387 0 24.239 10.852 24.239 24.239s-10.852 24.239-24.239 24.239h-638.575c-40.16 0-72.717 32.557-72.717 72.717v780.641c0 13.387-10.852 24.239-24.239 24.239s-24.239-10.852-24.239-24.239zM323.905 908.541c-26.774 0-48.478-21.704-48.478-48.478v-701.961c0-26.774 21.704-48.478 48.478-48.478h518.714c26.774 0 48.478 21.704 48.478 48.478v701.961c0 26.774-21.704 48.478-48.478 48.478h-518.714zM323.905 957.019h518.714c53.547 0 96.956-43.409 96.956-96.956v-701.961c0-53.547-43.409-96.956-96.956-96.956h-518.714c-53.547 0-96.956 43.409-96.956 96.956v701.961c0 53.547 43.409 96.956 96.956 96.956zM363.247 699.852h433.88c13.387 0 24.239 10.852 24.239 24.239s-10.852 24.239-24.239 24.239h-433.88c-13.387 0-24.239-10.852-24.239-24.239s10.852-24.239 24.239-24.239zM363.247 484.844h433.88c13.387 0 24.239 10.852 24.239 24.239s-10.852 24.239-24.239 24.239h-433.88c-13.387 0-24.239-10.852-24.239-24.239s10.852-24.239 24.239-24.239zM363.247 287.752h433.88c13.387 0 24.239 10.852 24.239 24.239s-10.852 24.239-24.239 24.239h-433.88c-13.387 0-24.239-10.852-24.239-24.239s10.852-24.239 24.239-24.239z" />
<glyph unicode="&#xe94a;" glyph-name="move-task" d="M874.176 846.878h71.542c13.404 0 24.27-10.866 24.27-24.27v-677.631c0-13.404-10.866-24.27-24.27-24.27h-756.354c-13.404 0-24.27 10.866-24.27 24.27v677.631c0 13.404 10.866 24.27 24.27 24.27h77.498v48.54h-77.498c-40.211 0-72.809-32.598-72.809-72.809v-677.631c0-40.211 32.598-72.809 72.809-72.809h756.354c40.211 0 72.809 32.598 72.809 72.809v677.631c0 40.211-32.598 72.809-72.809 72.809h-71.542v-48.54zM305.604 907.766v-73.236h533.719v73.236h-533.719zM305.604 956.306h533.719c26.808 0 48.54-21.731 48.54-48.54v-73.236c0-26.808-21.731-48.54-48.54-48.54h-533.719c-26.808 0-48.54 21.731-48.54 48.54v73.236c0 26.808 21.731 48.54 48.54 48.54zM289.249 255.257h579.129v38.832h-579.129zM289.249 633.736h579.129v38.832h-579.129zM289.249 444.497h579.129v38.832h-579.129zM2.076 748.143l-2.284-694.089c-0.22-67.019 53.93-121.527 120.948-121.747 0.44-0.001 236.189 1.781 707.251 5.346l-0.367 48.538-705.933-5.343c-41.001 0.13-73.492 32.835-73.36 73.046l2.284 694.089-48.54 0.16z" />
<glyph unicode="&#xe94b;" glyph-name="new-folder" d="M407.789 841.899h-285.505c-40.115 0-72.677-32.882-72.677-73.596v-643.832c0-40.633 32.636-73.596 72.694-73.596h781.088c39.918 0 72.694 32.833 72.694 73.095v506.085c0 40.229-32.883 73.095-73.289 73.095h-199.78c-53.913 0-119.324 29.901-159.143 70.796-28.727 36.557-90.13 67.955-136.081 67.955zM703.014 751.908h199.78c67.331 0 122.051-54.693 122.051-121.857v-506.085c0-67.174-54.588-121.857-121.456-121.857h-781.088c-67.098 0-121.456 54.902-121.456 122.358v643.832c0 67.54 54.287 122.358 121.439 122.358h285.505c53.839 0 118.744-29.721 158.556-70.779 28.494-36.286 90.587-67.973 136.669-67.973zM673.114 833.415h306.726c13.465 0 24.381 10.915 24.381 24.381s-10.915 24.381-24.381 24.381h-306.726c-13.465 0-24.381-10.915-24.381-24.381s10.915-24.381 24.381-24.381z" />
<glyph unicode="&#xe94c;" glyph-name="next-month" d="M845.58 795.247h25.932c40.36 0 73.080-32.719 73.080-73.080v-661.933c0-40.36-32.719-73.080-73.080-73.080h-718.061c-40.36 0-73.080 32.719-73.080 73.080v661.933c0 40.36 32.719 73.080 73.080 73.080h54.183c13.454 0 24.36 10.906 24.36 24.36s-10.906 24.36-24.36 24.36h-54.183c-67.268 0-121.8-54.532-121.8-121.8v-661.933c0-67.268 54.532-121.8 121.8-121.8h718.061c67.268 0 121.8 54.532 121.8 121.8v661.933c0 67.268-54.532 121.8-121.8 121.8h-25.932c-13.454 0-24.36-10.906-24.36-24.36s10.906-24.36 24.36-24.36zM56.012 553.765h899.407v48.72h-899.407zM406.146 795.247h222.234c13.454 0 24.36 10.906 24.36 24.36s-10.906 24.36-24.36 24.36h-222.234c-13.454 0-24.36-10.906-24.36-24.36s10.906-24.36 24.36-24.36zM328.233 653.074v285c0 13.454-10.906 24.36-24.36 24.36s-24.36-10.906-24.36-24.36v-285c0-13.454 10.906-24.36 24.36-24.36s24.36 10.906 24.36 24.36zM759.715 656.737v278.528c0 13.454-10.906 24.36-24.36 24.36s-24.36-10.906-24.36-24.36v-278.528c0-13.454 10.906-24.36 24.36-24.36s24.36 10.906 24.36 24.36zM431.368 328.181v-78.926h187.23v78.926h-187.23zM618.599 357.559v76.734h-187.23v-76.734h187.23zM429.615 219.876c-5.262-57.002-21.924-103.92-50.426-141.19l-24.116 21.924c28.939 39.464 43.409 89.45 44.287 149.96v213.978h251.249v-342.89c0-24.993-12.716-37.709-37.27-37.709h-56.564l-8.77 31.132c20.17-0.877 38.586-1.754 55.249-1.754 10.085 0 15.346 6.578 15.346 19.293v87.257h-188.985z" />
<glyph unicode="&#xe94d;" glyph-name="next-week" d="M845.58 795.247h25.932c40.36 0 73.080-32.719 73.080-73.080v-661.933c0-40.36-32.719-73.080-73.080-73.080h-718.061c-40.36 0-73.080 32.719-73.080 73.080v661.933c0 40.36 32.719 73.080 73.080 73.080h54.183c13.454 0 24.36 10.906 24.36 24.36s-10.906 24.36-24.36 24.36h-54.183c-67.268 0-121.8-54.532-121.8-121.8v-661.933c0-67.268 54.532-121.8 121.8-121.8h718.061c67.268 0 121.8 54.532 121.8 121.8v661.933c0 67.268-54.532 121.8-121.8 121.8h-25.932c-13.454 0-24.36-10.906-24.36-24.36s10.906-24.36 24.36-24.36zM56.012 553.765h899.407v48.72h-899.407zM406.146 795.247h222.234c13.454 0 24.36 10.906 24.36 24.36s-10.906 24.36-24.36 24.36h-222.234c-13.454 0-24.36-10.906-24.36-24.36s10.906-24.36 24.36-24.36zM499.46 434.685h32.398v-38.416h83.312v-27.77h-83.312v-45.821h98.585v-29.159h-229.105v29.159h98.121v45.821h-84.237v27.77h84.237v38.416zM690.15 480.044v-365.643c0-24.53-14.348-37.028-42.118-37.028h-59.706l-8.794 31.473c20.827-0.925 40.266-1.388 58.318-1.388 12.959 0 19.439 6.48 19.439 18.514v323.062h-280.481v-153.2c-0.925-90.717-16.662-164.771-47.209-221.237l-24.993 22.679c24.993 51.375 37.953 116.635 38.878 195.781v186.987h346.667zM420.315 258.343h186.987v-115.247h-186.987v115.247zM575.366 172.255v57.855h-122.653v-57.855h122.653zM328.233 653.074v285c0 13.454-10.906 24.36-24.36 24.36s-24.36-10.906-24.36-24.36v-285c0-13.454 10.906-24.36 24.36-24.36s24.36 10.906 24.36 24.36zM759.715 656.737v278.528c0 13.454-10.906 24.36-24.36 24.36s-24.36-10.906-24.36-24.36v-278.528c0-13.454 10.906-24.36 24.36-24.36s24.36 10.906 24.36 24.36z" />
<glyph unicode="&#xe94e;" glyph-name="note" d="M197.591 911.238c-26.931 0-48.762-21.831-48.762-48.762v-828.952c0-26.931 21.831-48.762 48.762-48.762h627.389c26.931 0 48.762 21.831 48.762 48.762v828.952c0 26.931-21.831 48.762-48.762 48.762h-627.389zM197.591 960h627.389c53.861 0 97.524-43.663 97.524-97.524v-828.952c0-53.861-43.663-97.524-97.524-97.524h-627.389c-53.861 0-97.524 43.663-97.524 97.524v828.952c0 53.861 43.663 97.524 97.524 97.524zM247.838 665.925h531.983c13.465 0 24.381 10.915 24.381 24.381s-10.915 24.381-24.381 24.381h-531.983c-13.465 0-24.381-10.915-24.381-24.381s10.915-24.381 24.381-24.381zM247.838 422.115h531.983c13.465 0 24.381 10.915 24.381 24.381s-10.915 24.381-24.381 24.381h-531.983c-13.465 0-24.381-10.915-24.381-24.381s10.915-24.381 24.381-24.381zM247.838 178.306h531.983c13.465 0 24.381 10.915 24.381 24.381s-10.915 24.381-24.381 24.381h-531.983c-13.465 0-24.381-10.915-24.381-24.381s10.915-24.381 24.381-24.381z" />
<glyph unicode="&#xe94f;" glyph-name="note-book" d="M142.154-15.069c-29.557 0-53.517 23.961-53.517 53.517v820.087c0 29.557 23.961 53.517 53.517 53.517v48.44c-56.309 0-101.956-45.648-101.956-101.956v-820.087c0-56.309 45.648-101.956 101.956-101.956v48.44zM263.021 908.177c-26.753 0-48.44-21.687-48.44-48.44v-823.474c0-26.753 21.687-48.44 48.44-48.44h620.028c26.753 0 48.44 21.687 48.44 48.44v823.474c0 26.753-21.687 48.44-48.44 48.44h-620.028zM263.021 956.616h620.028c53.505 0 96.879-43.375 96.879-96.879v-823.474c0-53.505-43.375-96.879-96.879-96.879h-620.028c-53.505 0-96.879 43.375-96.879 96.879v823.474c0 53.505 43.375 96.879 96.879 96.879zM288.209 667.916h547.2v48.44h-547.2zM288.209 423.78h547.2v48.44h-547.2zM288.209 199.989h547.2v48.44h-547.2z" />
<glyph unicode="&#xe950;" glyph-name="notice" d="M825.723 620.799l0.327-355.658c0-19.869 14.734-37.662 41.681-52.829 10.454-5.884 21.834-10.821 33.232-14.786 6.791-2.363 11.947-3.839 14.59-4.475l18.613-4.475v-151.547h-288.958c-15.518-59.468-69.59-102.794-133.206-102.794s-117.688 43.326-133.206 102.794h-288.958v155.723l23.299 0.951c23.306 0.952 44.307 13.751 62.762 35.445 10.453 12.287 18.001 24.679 22.363 33.614l0.224 359.502c10.774 120.455 90.976 204.902 215.515 243.575 2.242 10.938 6.108 23.818 11.628 35.489 16.427 34.726 45.15 56.908 86.373 56.908 58.753 0 93.565-51.501 99.712-92.815 123.849-38.813 203.177-122.605 214.010-244.622zM843.903 169.976c-40.626 22.865-66.434 54.033-66.434 95.142l-0.23 353.492c-9.244 103.253-79.994 173.638-195.536 204.973l-20.495 5.558 2.771 21.054c2.218 16.857-18.968 59.46-51.977 59.46-34.576 0-51.747-36.301-51.747-62.716v-18.56l-17.908-4.877c-115.222-31.377-186.239-102.317-195.378-203.412l-0.13-362.635-1.953-9.535c-5.584-13.070-16.109-31.589-31.984-50.25-20.978-24.661-45.771-42.23-74.484-49.239v-62.824h282.828l2.051-22.040c4.241-45.579 42.61-80.754 88.704-80.754s84.463 35.175 88.704 80.754l2.051 22.040h282.828v65.832c-14.526 5.053-28.484 11.109-41.681 18.537z" />
<glyph unicode="&#xe951;" glyph-name="ordered-list" d="M338.877 807.651h635.35c26.931 0 48.762 21.831 48.762 48.762s-21.831 48.762-48.762 48.762h-635.35c-26.931 0-48.762-21.831-48.762-48.762s21.831-48.762 48.762-48.762zM330.42-5.095h643.806c26.931 0 48.762 21.831 48.762 48.762s-21.831 48.762-48.762 48.762h-643.806c-26.931 0-48.762-21.831-48.762-48.762s21.831-48.762 48.762-48.762zM328.289 399.239h645.937c26.931 0 48.762 21.831 48.762 48.762s-21.831 48.762-48.762 48.762h-645.937c-26.931 0-48.762-21.831-48.762-48.762s21.831-48.762 48.762-48.762zM57.036 960c-7.021-7.607-15.799-14.336-26.331-20.773-10.532-5.851-20.187-9.948-29.55-12.288v-31.598c19.31 5.558 35.401 14.336 47.982 26.331v-170.569h31.89v208.896h-23.99zM76.931 556.47c-22.236 0-40.375-7.314-53.833-22.529-13.165-14.043-19.895-32.768-20.187-56.174h31.89c0.586 16.969 4.096 29.55 11.118 38.327 6.729 9.070 16.676 13.458 29.843 13.458 12.288 0 21.943-2.926 28.38-8.777s9.655-14.629 9.655-26.331c0-12.288-4.974-23.699-14.336-34.231-5.851-6.144-15.799-14.043-29.843-23.99-23.699-16.385-39.498-28.964-47.104-38.034-14.043-15.799-20.773-33.938-20.773-54.711h143.945v28.087h-104.447c4.388 11.411 17.846 24.576 40.375 39.498 20.773 14.043 35.108 25.161 43.3 33.645 13.458 14.921 20.48 31.305 20.48 49.444 0 18.432-6.437 33.354-19.017 45.056-12.873 11.702-29.55 17.262-49.444 17.262zM78.247 153.089c-20.48 0-37.157-5.558-50.030-17.262-13.751-11.702-21.357-27.794-23.113-48.567h31.305c1.17 12.873 5.558 22.529 12.581 28.964s16.969 9.655 29.55 9.655c12.288 0 21.943-2.633 28.38-8.485 5.851-5.558 9.070-13.458 9.070-23.99s-3.511-18.725-9.948-24.283c-6.437-5.558-16.092-8.485-28.964-8.485h-14.921v-23.99h15.214c13.751 0 24.283-2.926 31.305-8.777 7.607-5.851 11.411-14.921 11.411-27.209 0-10.532-3.804-19.017-10.825-26.039-8.192-7.607-19.017-11.702-32.475-11.702-12.288 0-22.236 3.511-29.843 10.532-8.777 7.607-13.165 18.432-13.751 32.475h-32.183c1.756-23.406 9.948-41.252 24.576-53.54 12.873-10.825 30.134-16.385 51.493-16.385 22.236 0 40.668 6.437 54.711 18.725 13.165 12.288 19.895 28.087 19.895 47.396 0 12.288-3.511 22.529-10.532 30.427-6.437 7.607-15.799 13.458-28.087 17.262 22.82 7.607 34.524 23.113 34.524 45.933 0 17.846-6.437 31.89-18.725 42.13-12.873 10.24-29.55 15.214-50.614 15.214z" />
<glyph unicode="&#xe952;" glyph-name="other" d="M82.805 385.954c-44.622 0-80.822 36.192-80.822 80.842s36.2 80.842 80.822 80.842c44.661 0 80.862-36.192 80.862-80.842s-36.2-80.842-80.862-80.842zM516.808 385.954c-44.622 0-80.822 36.192-80.822 80.842s36.2 80.842 80.822 80.842c44.661 0 80.862-36.192 80.862-80.842s-36.2-80.842-80.862-80.842zM945.121 385.954c-44.622 0-80.822 36.192-80.822 80.842s36.2 80.842 80.822 80.842c44.661 0 80.862-36.192 80.862-80.842s-36.2-80.842-80.862-80.842z" />
<glyph unicode="&#xe953;" glyph-name="password" d="M173.084-64.627c-67.969 0-123.068 55.099-123.068 123.068v413.574c0 67.969 55.099 123.068 123.068 123.068h682.487c67.969 0 123.068-55.099 123.068-123.068v-413.574c0-67.969-55.099-123.068-123.068-123.068h-682.487zM173.084-15.4h682.487c40.781 0 73.841 33.060 73.841 73.841v413.574c0 40.781-33.060 73.841-73.841 73.841h-682.487c-40.781 0-73.841-33.060-73.841-73.841v-413.574c0-40.781 33.060-73.841 73.841-73.841zM389.783 326.091c0 70.136 57.462 126.867 128.164 126.867 70.723 0 128.164-56.721 128.164-126.867 0-49.003-28.499-92.322-71.483-113.291v-76.6c0-31.296-25.37-56.665-56.665-56.665s-56.665 25.37-56.665 56.665v76.596c-43.007 20.965-71.514 64.284-71.514 113.295zM517.947 403.731c-43.654 0-78.937-34.833-78.937-77.64 0-33.529 22.119-62.859 54.475-73.323l17.040-5.51v-111.058c0-4.108 3.33-7.438 7.438-7.438s7.438 3.33 7.438 7.438v111.054l17.035 5.513c32.332 10.464 54.448 39.799 54.448 73.324 0 42.818-35.263 77.64-78.937 77.64zM845.622 567.102v80.943c-5.581 178.472-146.651 311.328-327.651 311.328-182.92 0-333.352-134.064-338.873-309.024l-0.012-2.304v-80.943h49.227v82.471c4.64 146.664 132.457 260.573 289.658 260.573 154.72 0 273.709-112.062 278.436-262.872l-0.012-80.172h49.227z" />
<glyph unicode="&#xe954;" glyph-name="phone" d="M281.844 911.238c-26.931 0-48.762-21.831-48.762-48.762v-828.952c0-26.931 21.831-48.762 48.762-48.762h460.312c26.931 0 48.762 21.831 48.762 48.762v828.952c0 26.931-21.831 48.762-48.762 48.762h-460.312zM281.844 960h460.312c53.861 0 97.524-43.663 97.524-97.524v-828.952c0-53.861-43.663-97.524-97.524-97.524h-460.312c-53.861 0-97.524 43.663-97.524 97.524v828.952c0 53.861 43.663 97.524 97.524 97.524zM184.32 782.019h655.456v48.762h-655.456zM184.32 167.619h655.456v48.762h-655.456zM518.364 20.796c-24.177 0-43.777 19.775-43.777 44.198s19.599 44.198 43.777 44.198c24.156 0 43.755-19.775 43.755-44.198s-19.599-44.198-43.755-44.198z" />
<glyph unicode="&#xe955;" glyph-name="photograph" d="M657.599 442.438c0 77.961-63.19 141.151-141.151 141.151s-141.151-63.19-141.151-141.151c0-77.961 63.19-141.151 141.151-141.151s141.151 63.19 141.151 141.151zM706.361 442.438c0-104.89-85.023-189.913-189.913-189.913s-189.913 85.023-189.913 189.913c0 104.89 85.023 189.913 189.913 189.913s189.913-85.023 189.913-189.913zM97.524 733.826c-26.931 0-48.762-21.831-48.762-48.762v-569.62c0-26.931 21.831-48.762 48.762-48.762h828.952c26.931 0 48.762 21.831 48.762 48.762v569.62c0 26.931-21.831 48.762-48.762 48.762h-186.736l-79.335 85.28c-9.225 9.917-22.158 15.549-35.702 15.549h-217.121c-14.373 0-28.013-6.34-37.277-17.327l-70.411-83.501h-202.37zM97.524 782.588h179.704l55.8 66.173c18.53 21.975 45.811 34.656 74.556 34.656h217.121c27.087 0 52.954-11.265 71.404-31.098l64.869-69.731h165.499c53.861 0 97.524-43.663 97.524-97.524v-569.62c0-53.861-43.663-97.524-97.524-97.524h-828.952c-53.861 0-97.524 43.663-97.524 97.524v569.62c0 53.861 43.663 97.524 97.524 97.524z" />
<glyph unicode="&#xe956;" glyph-name="picture" d="M97.524 788.552c-26.931 0-48.762-21.831-48.762-48.762v-583.58c0-26.931 21.831-48.762 48.762-48.762h828.952c26.931 0 48.762 21.831 48.762 48.762v583.58c0 26.931-21.831 48.762-48.762 48.762h-828.952zM97.524 837.314h828.952c53.861 0 97.524-43.663 97.524-97.524v-583.58c0-53.861-43.663-97.524-97.524-97.524h-828.952c-53.861 0-97.524 43.663-97.524 97.524v583.58c0 53.861 43.663 97.524 97.524 97.524zM109.579 188.954h788.779l-0.211 397.604c-217.594 24.958-357.007-63.145-418.24-264.311 0 0-72.806 81.049-175.915 81.049-79.73 0-144.535-71.448-194.413-214.342zM307.2 581.314c0-47.129-38.205-85.333-85.333-85.333s-85.333 38.205-85.333 85.333c0 47.129 38.205 85.333 85.333 85.333s85.333-38.205 85.333-85.333z" />
<glyph unicode="&#xe957;" glyph-name="picture2" d="M98.376 832.178c-26.876 0-48.662-21.786-48.662-48.662v-657.379c0-26.876 21.786-48.662 48.662-48.662h827.248c26.876 0 48.662 21.786 48.662 48.662v657.379c0 26.876-21.786 48.662-48.662 48.662h-827.248zM98.376 880.839h827.248c53.75 0 97.323-43.573 97.323-97.323v-657.379c0-53.75-43.573-97.323-97.323-97.323h-827.248c-53.75 0-97.323 43.573-97.323 97.323v657.379c0 53.75 43.573 97.323 97.323 97.323zM336.035 315.599c-37.513 36.234-93.95 44.524-140.299 20.609l-196.789-101.537 22.314-43.244 196.789 101.537c27.809 14.349 61.672 9.375 84.179-12.365l102.098-98.615 348.271 230.374c29.924 19.794 69.795 14.906 94.053-11.53l134.882-146.998 35.855 32.9-134.882 146.998c-40.427 44.059-106.881 52.206-156.754 19.215l-315.703-208.832-74.013 71.487zM376.107 577.345c0 52.087-42.232 94.319-94.319 94.319s-94.319-42.232-94.319-94.319c0-52.087 42.232-94.319 94.319-94.319s94.319 42.232 94.319 94.319zM424.769 577.345c0-78.961-64.019-142.98-142.98-142.98s-142.98 64.019-142.98 142.98c0 78.961 64.019 142.98 142.98 142.98s142.98-64.019 142.98-142.98z" />
<glyph unicode="&#xe958;" glyph-name="plan" d="M97.524 911.238c-26.931 0-48.762-21.831-48.762-48.762v-828.952c0-26.931 21.831-48.762 48.762-48.762h828.952c26.931 0 48.762 21.831 48.762 48.762v828.952c0 26.931-21.831 48.762-48.762 48.762h-828.952zM97.524 960h828.952c53.861 0 97.524-43.663 97.524-97.524v-828.952c0-53.861-43.663-97.524-97.524-97.524h-828.952c-53.861 0-97.524 43.663-97.524 97.524v828.952c0 53.861 43.663 97.524 97.524 97.524zM210.491 788.358v-680.717h209.676v680.717h-209.676zM210.491 837.12h209.676c26.931 0 48.762-21.831 48.762-48.762v-680.717c0-26.931-21.831-48.762-48.762-48.762h-209.676c-26.931 0-48.762 21.831-48.762 48.762v680.717c0 26.931 21.831 48.762 48.762 48.762zM625.52 788.358v-393.996h209.676v393.996h-209.676zM625.52 837.12h209.676c26.931 0 48.762-21.831 48.762-48.762v-393.996c0-26.931-21.831-48.762-48.762-48.762h-209.676c-26.931 0-48.762 21.831-48.762 48.762v393.996c0 26.931 21.831 48.762 48.762 48.762z" />
<glyph unicode="&#xe959;" glyph-name="plan-solid" d="M97.524 960h828.952c53.861 0 97.524-43.663 97.524-97.524v-828.952c0-53.861-43.663-97.524-97.524-97.524h-828.952c-53.861 0-97.524 43.663-97.524 97.524v828.952c0 53.861 43.663 97.524 97.524 97.524v0zM210.491 837.12c-26.931 0-48.762-21.831-48.762-48.762v-680.717c0-26.931 21.831-48.762 48.762-48.762h209.676c26.931 0 48.762 21.831 48.762 48.762v680.717c0 26.931-21.831 48.762-48.762 48.762h-209.676zM625.52 837.12c-26.931 0-48.762-21.831-48.762-48.762v-393.996c0-26.931 21.831-48.762 48.762-48.762h209.676c26.931 0 48.762 21.831 48.762 48.762v393.996c0 26.931-21.831 48.762-48.762 48.762h-209.676z" />
<glyph unicode="&#xe95a;" glyph-name="position" d="M654.217 901.209h-277.4l56.455-76.278h166.321l54.624 76.278zM408.996 776.759l-127.763 172.622h466.734l-123.619-172.622h-215.352zM502.429 693.27c37.9 12.495 78.754-8.101 91.248-46.002l111.58-338.465c9.43-28.605 7.8-59.706-4.571-87.167l-109.723-243.586c-7.126-15.821-19.708-28.548-35.445-35.857-36.194-16.811-79.162-1.097-95.973 35.097l-112.966 243.224c-13.052 28.101-14.77 60.152-4.798 89.488l114.857 337.899c7.299 21.47 24.253 38.271 45.791 45.371zM387.391 294.497c-5.983-17.601-4.951-36.832 2.879-53.693l112.966-243.224c5.604-12.064 19.926-17.302 31.991-11.698 5.245 2.437 9.439 6.679 11.815 11.952l109.723 243.586c7.422 16.477 8.401 35.138 2.743 52.3l-111.58 338.465c-4.164 12.633-17.782 19.499-30.416 15.334-7.179-2.366-12.831-7.967-15.263-15.123l-114.857-337.899z" />
<glyph unicode="&#xe95b;" glyph-name="preference" d="M931.001 427.501c-29.776-90.834-101.495-180.382-202.839-267.525-39.654-34.098-81.823-66.041-125.663-96.198-16.369-11.26-32.202-21.742-48.229-32.030-5.954-3.823-11.622-7.419-17.934-11.391-7.318-4.596-10.829-6.799-12.753-8.015l-11.15-7.043-11.15 7.043c-1.925 1.216-5.435 3.419-12.753 8.015-6.312 3.972-11.979 7.569-17.934 11.391-16.026 10.289-31.86 20.771-48.229 32.030-43.841 30.156-86.009 62.099-125.663 96.198-101.343 87.143-173.062 176.691-202.839 267.525-93.864 286.317 195.82 461.191 425.020 253.788 210.809 209.412 505.115 29.898 412.114-253.787zM531.714 66.883c15.673 10.062 31.142 20.304 47.124 31.296 42.682 29.358 83.682 60.417 122.104 93.455 96.091 82.626 163.464 166.749 190.385 248.874 81.168 247.591-175.068 397.12-356.248 197.299l-14.68-16.189-15.501 15.405c-200.856 199.596-453.387 53.71-371.355-196.514 26.921-82.123 94.294-166.247 190.385-248.873 38.422-33.038 79.421-64.096 122.104-93.455 15.981-10.993 31.45-21.234 47.124-31.296 5.838-3.748 11.404-7.279 17.617-11.189 9.538 3.91 15.104 7.442 20.942 11.189z" />
<glyph unicode="&#xe95c;" glyph-name="qq" d="M867.666 234.668c-11.164-31.202-16.757-45.063-26.084-61.963-2.679-4.852-2.655-4.808-9.962-18.675-9.069-17.211-14.501-26.742-24.504-40.594 2.452 2.594 3.545 4.571 4.155 6.194-0.41-1.223-1.165-3.235-1.152-2.839-1.669-4.942-0.301-8.119 2.821-9.314 22.398-8.442 42.68-20.574 58.076-34.996 11.339-11.779 18.425-24.832 18.425-38.395 0-27.002-21.455-47.673-58.38-66.426-39.225-19.043-92.402-30.019-147.622-30.019-34.854 0-65.67 3.206-93.619 9.774-27.467 6.454-51.769 16.344-73.168 29.767-0.601 0.418-1.71 0.418-2.765-0.167-18.405-12.47-44.309-22.876-73.236-29.67-29.473-6.52-60.012-9.702-93.309-9.702-56.418 0-108.076 10.702-147.896 30.154-36.362 18.219-58.106 39.234-58.106 66.292 0 13.476 7.007 26.242 18.348 38.314 14.088 14.769 32.743 26.039 53.867 33.784l4.16 2.214c3.563 1.992 4.436 7.48 2.907 10.008-11.943 17.411-22.837 36.826-32.363 57.326-10.486 22.561-18.65 41.817-25.452 60.84-3.185 3.23-5.78 2.762-6.779 1.145-6.239-9.965-14.442-20.613-21.644-28.281-11.845-12.612-24.587-22.561-35.542-27.226l-9.554-1.95c-27.336 0-36.713 48.674-31.374 86.98 4.901 43.921 18.050 92.264 37.687 135.506 2.244 5.576 4.685 10.595 8.308 17.431 1.967 3.686 1.967 3.686 3.731 7.010 1.246 2.369 2.182 4.224 2.975 5.911 0.789 1.661 0.789 1.661 1.595 3.287 1.889 3.776 3.974 7.588 6.576 12.108 0.813 1.413 5.924 10.133 7.699 13.23 0.14 0.225 0.569 1.964 0.575 4.511 2.912 134.647 45.043 260.364 116.295 350.911 70.544 91.871 166.057 144.494 268.642 144.494 101 0 195.981-52.269 275.381-146.563 71.496-92.494 113.267-216.719 116.171-351.271 0-1.019 0.693-3.832 1.145-4.952 0.699-1.24 9.631-18.018 12.465-22.754 0.708-1.174 0.708-1.174 2.661-4.552 0.769-1.576 0.769-1.576 1.529-3.143 9.705-20.051 8.77-18.15 13.24-26.592 20.286-44.726 33.281-91.574 38.145-135.2 4.007-42.93 1.337-68.808-17.307-82.042l-10.33-7.332-11.937 4.237c-13.389 4.752-24.833 14.512-36.94 29.293-5.619 5.982-10.173 11.725-19.043 23.532l-2.696 4.542c-3.723 0.4-5.677-0.811-6.815-4.171zM924.23 261.642c-4.246 38.059-15.864 79.938-33.326 118.569-4.231 7.885-3.288 5.964-13.444 26.949-1.189 2.321-1.189 2.321-2.135 3.892-3.593 6.002-12.955 23.588-13.937 25.468-4.188 8.917-6.599 18.702-6.593 26.759-2.677 123.846-41.046 237.956-105.351 321.181-70.138 83.264-152.189 128.419-237.444 128.419-86.539 0-168.205-44.993-230.145-125.658-64.656-82.167-103.352-197.634-106.037-321.511 0-10.625-2.621-21.268-7.426-28.893-1.442-2.558-6.714-11.556-7.343-12.648-2.168-3.767-3.829-6.802-5.227-9.598-2.988-6.288 2.269 3.706-8.826-17.227-2.892-5.456-4.682-9.137-6.57-13.769-17.914-39.496-29.709-82.865-34.13-122.395-0.48-3.444-0.744-6.989-0.813-10.58 3.254 4.119 6.505 8.663 9.139 12.87 15.992 25.894 50.757 32.157 78.876 11.486 9.079-9.665 12.59-14.143 15.363-22.358 6.083-17.004 13.708-34.986 23.62-56.311 8.431-18.14 18.008-35.212 28.994-51.275 15.227-24.658 9.78-58.945-16.43-77.305l-5.143-2.738c-1.714-0.913-1.714-0.913-6.287-3.118-17.633-6.645-30.152-14.21-38.509-22.969-3.523-3.751-4.999-6.439-4.999-4.795 0-2.405 10.020-12.089 30.965-22.586 32.559-15.904 76.933-25.096 126.274-25.096 29.833 0 56.846 2.814 82.465 8.481 23.227 5.458 43.733 13.695 57.894 23.243 18.137 10.84 39.887 10.84 55.8-0.258 15.755-9.857 35.083-17.723 57.471-22.983 24.089-5.661 51.198-8.481 82.465-8.481 48.176 0 94.105 9.48 125.932 24.926 21.363 10.852 31.307 20.434 31.307 22.756 0-1.494-1.362 1.014-3.865 3.665-9.596 8.961-24.399 17.814-41.188 24.143-28.38 10.864-41.527 41.415-30.675 73.063 1.765 4.73 3.064 7.313 5.213 10.087 5.59 8.212 10.27 16.45 18.317 31.72 7.526 14.282 7.504 14.24 10.41 19.505 7.638 13.84 12.582 26.092 22.849 54.784 9.913 29.367 41.84 44.537 73.011 31.158 11.144-5.906 17.755-10.871 22.774-20.429 2.944-3.905 5.306-6.983 7.414-9.627-0.173 3.002-0.4 6.177-0.708 9.487z" />
<glyph unicode="&#xe95d;" glyph-name="qr-code" d="M303.663 573.962v-253.841h410.051v253.841h-410.051zM303.663 622.778h410.051c26.961 0 48.816-21.855 48.816-48.816v-253.841c0-26.961-21.855-48.816-48.816-48.816h-410.051c-26.961 0-48.816 21.855-48.816 48.816v253.841c0 26.961 21.855 48.816 48.816 48.816zM49.727 606.236v158.243c0 13.48 10.927 24.408 24.408 24.408h239.291c13.48 0 24.408 10.927 24.408 24.408s-10.927 24.408-24.408 24.408h-239.291c-40.44 0-73.223-32.784-73.223-73.223v-158.243c0-13.48 10.927-24.408 24.408-24.408s24.408 10.927 24.408 24.408zM314.841 117.794h-240.709c-13.48 0-24.408 10.927-24.408 24.408v154.849c0 13.48-10.927 24.408-24.408 24.408s-24.408-10.927-24.408-24.408v-154.849c0-40.44 32.784-73.223 73.223-73.223h240.709c13.48 0 24.408 10.927 24.408 24.408s-10.927 24.408-24.408 24.408zM976.093 303.491v-161.019c0-13.48-10.927-24.408-24.408-24.408l-217.214 1.2c-13.48 0.074-24.467-10.793-24.542-24.273s10.793-24.467 24.273-24.542l217.079-1.199c40.845-0.001 73.627 32.782 73.627 73.222v161.019c0 13.48-10.927 24.408-24.408 24.408s-24.408-10.927-24.408-24.408zM734.337 790.361h217.346c13.48 0 24.408-10.927 24.408-24.408v-125.067c0-13.48 10.927-24.408 24.408-24.408s24.408 10.927 24.408 24.408v125.067c0 40.44-32.784 73.223-73.223 73.223h-217.346c-13.48 0-24.408-10.927-24.408-24.408s10.927-24.408 24.408-24.408z" />
<glyph unicode="&#xe95e;" glyph-name="quote" d="M103.191 370.029h230.879c53.129 0 96.2-43.070 96.2-96.2v-235.155c0-53.129-43.070-96.2-96.2-96.2h-230.879c-53.129 0-96.2 43.070-96.2 96.2v235.155c0 53.129 43.070 96.2 96.2 96.2zM690.008 363.555h230.879c53.129 0 96.2-43.070 96.2-96.2v-235.155c0-53.129-43.070-96.2-96.2-96.2h-230.879c-53.129 0-96.2 43.070-96.2 96.2v235.155c0 53.129 43.070 96.2 96.2 96.2zM103.191 59.041l0.801 266.132c0.602 199.992 70.422 393.609 197.599 547.957l1.871 2.271c16.892 20.502 13.967 50.816-6.535 67.708s-50.816 13.967-67.708-6.535l-1.871-2.271c-141.307-171.497-218.886-386.628-219.554-608.841l-0.801-266.132c-0.080-26.564 21.39-48.164 47.954-48.244s48.164 21.39 48.244 47.954zM690.008 52.567l0.81 269.195c0.597 198.224 69.195 390.24 194.334 543.97l4.873 5.987c16.77 20.602 13.664 50.898-6.938 67.668s-50.898 13.664-67.668-6.938l-4.873-5.987c-139.043-170.812-215.263-384.163-215.926-604.412l-0.81-269.195c-0.080-26.564 21.39-48.164 47.954-48.244s48.164 21.39 48.244 47.954z" />
<glyph unicode="&#xe95f;" glyph-name="rate-of-progress" d="M97.524 542.598c-26.931 0-48.762-21.831-48.762-48.762v-91.673c0-26.931 21.831-48.762 48.762-48.762h828.952c26.931 0 48.762 21.831 48.762 48.762v91.673c0 26.931-21.831 48.762-48.762 48.762h-828.952zM97.524 591.36h828.952c53.861 0 97.524-43.663 97.524-97.524v-91.673c0-53.861-43.663-97.524-97.524-97.524h-828.952c-53.861 0-97.524 43.663-97.524 97.524v91.673c0 53.861 43.663 97.524 97.524 97.524zM861.106 396.8c28.277 0 51.2 22.923 51.2 51.2s-22.923 51.2-51.2 51.2c-28.277 0-51.2-22.923-51.2-51.2s22.923-51.2 51.2-51.2z" />
<glyph unicode="&#xe960;" glyph-name="receive" d="M51.616 306.188l91.684 212.758c11.478 26.634 37.7 43.888 66.702 43.888h125.81c13.371 0 24.211 10.839 24.211 24.211s-10.839 24.211-24.211 24.211h-125.81c-48.337 0-92.041-28.756-111.17-73.147l-91.684-212.758c-5.291-12.279 0.374-26.524 12.653-31.816s26.524 0.374 31.816 12.653zM1020.644 325.204l-85.754 202.654c-18.95 44.783-62.857 73.879-111.483 73.879h-125.354c-13.371 0-24.211-10.839-24.211-24.211s10.839-24.211 24.211-24.211h125.354c29.176 0 55.52-17.458 66.89-44.328l85.754-202.654c5.211-12.315 19.417-18.073 31.732-12.862s18.073 19.417 12.862 31.732zM92.892 346.996c-21.46 0-38.869-17.425-38.869-38.933v-278.381c0-21.515 17.417-38.956 38.869-38.956h841.953c21.453 0 38.869 17.44 38.869 38.956v278.381c0 21.508-17.41 38.933-38.869 38.933h-137.533c-12.083-22.5-31.998-50.704-60.864-78.847-59.256-57.77-136.017-92.598-231.094-92.598-95.221 0-170.711 34.966-227.609 92.981-27.418 27.956-46.040 55.968-57.217 78.464h-127.639zM934.846-57.696h-841.953c-48.21 0-87.291 39.134-87.291 87.377v278.381c0 48.24 39.080 87.355 87.291 87.355h159.839l6.024-15.382c1.654-4.223 5.57-12.455 11.974-23.345 10.862-18.472 24.662-36.995 41.588-54.253 48.192-49.138 111.506-78.464 193.039-78.464 81.697 0 146.64 29.464 197.292 78.847 17.801 17.355 32.512 35.976 44.266 54.546 6.933 10.954 11.251 19.247 13.118 23.526l6.34 14.525h168.472c48.211 0 87.291-39.113 87.291-87.355v-278.381c0-48.243-39.081-87.377-87.291-87.377zM542.849 363.984v561.793c0 13.371-10.839 24.211-24.211 24.211s-24.211-10.839-24.211-24.211v-561.793c0-13.371 10.839-24.211 24.211-24.211s24.211 10.839 24.211 24.211zM379.118 505.598c-9.376 9.534-24.704 9.663-34.238 0.287s-9.663-24.704-0.287-34.238l173.476-176.412 179.659 176.097c9.549 9.359 9.702 24.688 0.343 34.238s-24.688 9.702-34.238 0.343l-145.135-142.258-139.581 141.943z" />
<glyph unicode="&#xe961;" glyph-name="redo" d="M917.035 467.237h-489.658c-182.539 0-330.517-147.978-330.517-330.517 0-26.748-21.682-48.43-48.43-48.43s-48.43 21.682-48.43 48.43c0 236.034 191.343 427.377 427.377 427.377h489.658c26.748 0 48.43-21.682 48.43-48.43s-21.682-48.43-48.43-48.43zM660.118 715.084c-21.005 16.558-24.61 47.010-8.052 68.016s47.010 24.61 68.016 8.052l267.002-210.477c31.508-24.838 36.916-70.516 12.078-102.023-2.714-3.443-5.735-6.633-9.023-9.531l-268.020-236.171c-20.067-17.684-50.671-15.75-68.354 4.318s-15.75 50.671 4.318 68.354l246.227 216.968-244.191 192.495z" />
<glyph unicode="&#xe962;" glyph-name="relevance" d="M367.572 663.657h-151.913c-119.105 0-215.658-96.553-215.658-215.658s96.553-215.658 215.658-215.658h151.913c27.337 0 49.497 22.16 49.497 49.497s-22.16 49.497-49.497 49.497h-151.913c-64.433 0-116.665 52.232-116.665 116.665s52.232 116.665 116.665 116.665h151.913c27.337 0 49.497 22.16 49.497 49.497s-22.16 49.497-49.497 49.497zM667.341 232.342h141c119.105 0 215.658 96.553 215.658 215.658s-96.553 215.658-215.658 215.658h-141c-27.337 0-49.497-22.16-49.497-49.497s22.16-49.497 49.497-49.497h141c64.433 0 116.665-52.232 116.665-116.665s-52.232-116.665-116.665-116.665h-141c-27.337 0-49.497-22.16-49.497-49.497s22.16-49.497 49.497-49.497zM306.837 397.015h427.61c27.337 0 49.497 22.16 49.497 49.497s-22.16 49.497-49.497 49.497h-427.61c-27.337 0-49.497-22.16-49.497-49.497s22.16-49.497 49.497-49.497z" />
<glyph unicode="&#xe963;" glyph-name="reload" d="M897.857 298.086c-23.178-100.603-110.288-184.636-252.917-236.548-183.431-66.763-387.418 4.7-489.638 168.061-15.249 24.381-27.985 50.462-38.001 77.982-7.895 21.692-13.928 43.815-18.092 66.198-0.947 5.125-1.752 9.948-2.427 14.58-1.856 12.751-13.698 21.584-26.449 19.727s-21.584-13.698-19.727-26.449c0.764-5.251 1.667-10.653 2.722-16.364 4.638-24.933 11.349-49.54 20.124-73.651 11.136-30.595 25.309-59.62 42.29-86.771 113.846-181.94 340.929-261.494 545.157-187.161 156.401 56.925 255.349 152.378 282.428 269.921 2.892 12.557-4.941 25.081-17.497 27.974s-25.081-4.941-27.974-17.497zM130.365 579.6c39.423 137.278 108.783 207.627 257.298 258.765 188.687 64.97 395.909-11.759 497.402-180.612 15.127-25.164 27.652-51.99 37.371-80.214 9.358-27.175 15.869-54.932 19.541-82.996 1.672-12.776 13.385-21.779 26.161-20.107s21.779 13.385 20.107 26.161c-4.078 31.168-11.309 61.986-21.689 92.134-10.783 31.316-24.694 61.108-41.498 89.062-112.785 187.64-342.967 272.87-552.587 200.692-162.605-55.989-243.239-137.774-286.956-290.005-3.557-12.384 3.6-25.308 15.986-28.865s25.308 3.6 28.865 15.986zM116.375 585.422l-73.172 150.025c-5.648 11.581-19.616 16.391-31.198 10.742s-16.391-19.616-10.742-31.198l93.628-191.966 195.739 95.468c11.581 5.648 16.391 19.616 10.742 31.198s-19.616 16.391-31.198 10.742l-153.8-75.013zM971.206 153.335c3.335-12.446 16.128-19.833 28.575-16.498s19.833 16.128 16.498 28.575l-55.279 206.304-210.36-56.365c-12.446-3.335-19.833-16.128-16.498-28.575s16.128-19.833 28.575-16.498l165.287 44.288 43.202-161.231z" />
<glyph unicode="&#xe964;" glyph-name="renew-note" d="M202.251 911.238c-26.931 0-48.762-21.831-48.762-48.762v-828.952c0-26.931 21.831-48.762 48.762-48.762h619.498c26.931 0 48.762 21.831 48.762 48.762v828.952c0 26.931-21.831 48.762-48.762 48.762h-619.498zM202.251 960h619.498c53.861 0 97.524-43.663 97.524-97.524v-828.952c0-53.861-43.663-97.524-97.524-97.524h-619.498c-53.861 0-97.524 43.663-97.524 97.524v828.952c0 53.861 43.663 97.524 97.524 97.524zM656.329 318.793c-25.132-38.739-75.592-61.173-146.487-61.173-90.271 0-167.62 63.325-186.2 150.465-2.77 13.004-4.18 26.356-4.18 39.913 0 10.687 0.877 21.262 2.61 31.651 0.398 2.369 0.808 4.582 1.243 6.676 2.735 13.185-5.737 26.089-18.921 28.824s-26.089-5.737-28.824-18.921c-0.567-2.733-1.090-5.551-1.59-8.535-2.177-13.063-3.277-26.319-3.277-39.696 0-16.976 1.769-33.733 5.25-50.076 23.355-109.539 120.492-189.064 233.89-189.064 86.21 0 152.375 29.417 187.395 83.396 7.329 11.296 4.112 26.394-7.185 33.723s-26.394 4.112-33.723-7.185zM362.158 566.145c37.137 52.992 75.894 72.236 147.677 72.236 90.3 0 167.662-63.362 186.206-150.539 2.765-12.995 4.173-26.321 4.173-39.84 0-13.018-1.304-25.858-3.868-38.408-2.695-13.193 5.815-26.073 19.008-28.767s26.073 5.815 28.767 19.008c3.218 15.756 4.854 31.865 4.854 48.168 0 16.937-1.767 33.663-5.239 49.987-23.31 109.582-120.465 189.154-233.901 189.154-87.355 0-141.143-26.707-187.61-93.013-7.727-11.027-5.054-26.231 5.974-33.958s26.231-5.054 33.958 5.974zM299.745 467.362h111.624c13.465 0 24.381 10.915 24.381 24.381s-10.915 24.381-24.381 24.381h-111.624c-13.465 0-24.381-10.915-24.381-24.381s10.915-24.381 24.381-24.381zM613.167 379.948h106.779c13.465 0 24.381 10.915 24.381 24.381s-10.915 24.381-24.381 24.381h-106.779c-13.465 0-24.381-10.915-24.381-24.381s10.915-24.381 24.381-24.381z" />
<glyph unicode="&#xe965;" glyph-name="renew-task-description" d="M844.634 849.414h56.191c40.262 0 72.902-32.64 72.902-72.902v-719.008c0-40.262-32.64-72.902-72.902-72.902h-777.653c-40.262 0-72.902 32.64-72.902 72.902v716.537c0 38.786 30.37 70.782 69.104 72.804l49.862 2.602-2.532 48.535-49.862-2.602c-64.556-3.369-115.172-56.695-115.172-121.339v-716.537c0-67.105 54.399-121.504 121.504-121.504h777.653c67.105 0 121.504 54.399 121.504 121.504v719.008c0 67.105-54.399 121.504-121.504 121.504h-56.191v-48.601zM212.034 911.399v-90.184h596.826v90.184h-596.826zM212.034 960.001h596.826c26.842 0 48.601-21.759 48.601-48.601v-90.184c0-26.842-21.759-48.601-48.601-48.601h-596.826c-26.842 0-48.601 21.759-48.601 48.601v90.184c0 26.842 21.759 48.601 48.601 48.601zM656.457 272.301c-25.049-38.612-75.343-60.971-146.005-60.971-89.974 0-167.069 63.117-185.587 149.97-2.761 12.961-4.166 26.269-4.166 39.782 0 10.652 0.874 21.192 2.601 31.547 0.396 2.361 0.806 4.567 1.239 6.654 2.726 13.141-5.718 26.003-18.859 28.729s-26.003-5.718-28.729-18.859c-0.565-2.724-1.087-5.533-1.585-8.506-2.17-13.020-3.267-26.232-3.267-39.566 0-16.92 1.763-33.622 5.233-49.911 23.278-109.179 120.095-188.442 233.121-188.442 85.926 0 151.874 29.32 186.779 83.122 7.304 11.259 4.098 26.307-7.161 33.612s-26.307 4.098-33.612-7.161zM363.254 518.84c37.015 52.817 75.644 71.998 147.192 71.998 90.003 0 167.11-63.153 185.593-150.044 2.756-12.952 4.159-26.235 4.159-39.709 0-12.975-1.299-25.773-3.855-38.282-2.686-13.149 5.796-25.987 18.946-28.672s25.987 5.796 28.672 18.946c3.207 15.704 4.838 31.761 4.838 48.009 0 16.881-1.761 33.552-5.222 49.822-23.233 109.222-120.069 188.531-233.132 188.531-87.067 0-140.679-26.619-186.992-92.707-7.702-10.991-5.037-26.145 5.954-33.847s26.145-5.037 33.847 5.954zM301.047 418.662h111.257c13.421 0 24.301 10.88 24.301 24.301s-10.88 24.301-24.301 24.301h-111.257c-13.421 0-24.301-10.88-24.301-24.301s10.88-24.301 24.301-24.301zM613.437 336.683h106.427c13.421 0 24.301 10.88 24.301 24.301s-10.88 24.301-24.301 24.301h-106.427c-13.421 0-24.301-10.88-24.301-24.301s10.88-24.301 24.301-24.301z" />
<glyph unicode="&#xe966;" glyph-name="restart-task" d="M844.634 849.414h56.191c40.262 0 72.902-32.64 72.902-72.902v-719.008c0-40.262-32.64-72.902-72.902-72.902h-777.653c-40.262 0-72.902 32.64-72.902 72.902v716.537c0 38.786 30.37 70.782 69.104 72.804l49.862 2.602-2.532 48.535-49.862-2.602c-64.556-3.369-115.172-56.695-115.172-121.339v-716.537c0-67.105 54.399-121.504 121.504-121.504h777.653c67.105 0 121.504 54.399 121.504 121.504v719.008c0 67.105-54.399 121.504-121.504 121.504h-56.191v-48.601zM593.211 569.255c88.495-35.078 139.353-129.741 118.694-223.746-23.187-105.502-127.516-172.233-233.021-149.046-105.502 23.187-172.233 127.516-149.046 233.021 14.273 64.923 72.477 126.598 137.583 149.832l-16.334 45.774c-80.327-28.665-150.704-103.239-168.717-185.171-28.948-131.722 54.363-261.976 186.082-290.924 131.721-28.948 261.975 54.363 290.923 186.082 25.795 117.374-37.688 235.533-148.254 279.36l-17.909-45.182zM400.382 492.748l44.273-20.050 63.568 140.357-143.893 74.162-22.266-43.201 102.825-52.995zM212.034 911.399v-90.184h596.826v90.184h-596.826zM212.034 960.001h596.826c26.842 0 48.601-21.759 48.601-48.601v-90.184c0-26.842-21.759-48.601-48.601-48.601h-596.826c-26.842 0-48.601 21.759-48.601 48.601v90.184c0 26.842 21.759 48.601 48.601 48.601z" />
<glyph unicode="&#xe967;" glyph-name="revoke" d="M106.191 464.902h490.072c182.693 0 330.796-148.102 330.796-330.796 0-26.77 21.701-48.471 48.471-48.471s48.471 21.701 48.471 48.471c0 236.233-191.505 427.738-427.738 427.738h-490.072c-26.77 0-48.471-21.701-48.471-48.471s21.701-48.471 48.471-48.471zM364.189 717.66c21.023 16.572 24.631 47.050 8.059 68.073s-47.050 24.631-68.073 8.059l-267.228-210.654c-31.534-24.859-36.947-70.575-12.088-102.109 2.716-3.446 5.739-6.639 9.030-9.539l268.246-236.37c20.084-17.698 50.713-15.764 68.412 4.322s15.764 50.713-4.322 68.412l-246.435 217.151 244.397 192.657z" />
<glyph unicode="&#xe968;" glyph-name="right-align" d="M1.384 423.712h1022.616v97.15h-1022.616zM0 860.89h1022.299v97.15h-1022.299zM5.284-62.040h1014.753v97.15h-1014.753zM395.872 666.588h627.046v97.15h-627.046zM393.732 180.836h627.046v97.15h-627.046z" />
<glyph unicode="&#xe969;" glyph-name="right-retraction" d="M0.404 862.59h1020.104v97.17h-1020.104zM0.381-63.76h1019.61v97.17h-1019.61zM499.627 221.271h520.678v97.17h-520.678zM499.627 577.559h524.373v97.17h-524.373zM3.798 689.301l-3.798-475.948 404.175 234.025z" />
<glyph unicode="&#xe96a;" glyph-name="row-height" d="M414.241 399.49h605.81v97.021h-605.81zM411.318 838.639h612.069v97.021h-612.069zM412.418-32.252h351.413v97.021h-351.413zM412.695 637.19h611.305v97.021h-611.305zM412.002 161.789h606.716v97.021h-606.716zM156.793 957.358l-156.793-164.639h313.586zM156.793-61.358l-156.793 164.639h313.586zM109.582 831.075v-783.461h97.021v783.461z" />
<glyph unicode="&#xe96b;" glyph-name="schedule" d="M854.737 811.806h28.457c40.55 0 73.423-32.873 73.423-73.423v-679.539c0-40.55-32.873-73.423-73.423-73.423h-739.218c-40.55 0-73.423 32.873-73.423 73.423v679.539c0 40.55 32.873 73.423 73.423 73.423h57.392c13.517 0 24.474 10.957 24.474 24.474s-10.957 24.474-24.474 24.474h-57.392c-67.584 0-122.372-54.788-122.372-122.372v-679.539c0-67.584 54.788-122.372 122.372-122.372h739.218c67.584 0 122.372 54.788 122.372 122.372v679.539c0 67.584-54.788 122.372-122.372 122.372h-28.457c-13.517 0-24.474-10.957-24.474-24.474s10.957-24.474 24.474-24.474zM46.079 549.198h921.151v48.949h-921.151zM416.618 814.494h217.887c13.517 0 24.474 10.957 24.474 24.474s-10.957 24.474-24.474 24.474h-217.887c-13.517 0-24.474-10.957-24.474-24.474s10.957-24.474 24.474-24.474zM312.925 637.868v297.479c0 13.517-10.957 24.474-24.474 24.474s-24.474-10.957-24.474-24.474v-297.479c0-13.517 10.957-24.474 24.474-24.474s24.474 10.957 24.474 24.474zM776.394 641.621v294.377c0 13.517-10.957 24.474-24.474 24.474s-24.474-10.957-24.474-24.474v-294.377c0-13.517 10.957-24.474 24.474-24.474s24.474 10.957 24.474 24.474z" />
<glyph unicode="&#xe96c;" glyph-name="screening" d="M79.649 907.999c-6.145 0-12.059-2.342-16.539-6.548-9.727-9.135-10.208-24.424-1.075-34.152l413.577-440.438v-391.936c0-24.829 20.128-44.955 44.955-44.955s44.955 20.128 44.955 44.955v391.753l403.227 440.854c4.074 4.454 6.333 10.271 6.333 16.306 0 13.344-10.817 24.161-24.161 24.161h-871.274zM26.809 834.221c-27.403 29.182-25.96 75.054 3.223 102.456 13.44 12.62 31.182 19.644 49.616 19.644h871.274c40.031 0 72.483-32.452 72.483-72.483 0-18.108-6.778-35.559-18.999-48.92l-390.561-427.006v-372.987c0-51.516-41.762-93.278-93.278-93.278s-93.278 41.762-93.278 93.278v372.805l-400.482 426.493zM246.648 639.413c70.805 67.648 140.025 67.648 217.553-0.659 97.408-85.82 239.232-59.839 421.511 70.183l-28.061 39.34c-166.168-118.53-285.348-140.364-361.505-73.266-96.036 84.612-193.627 84.612-282.879-0.659l33.381-34.939zM710.451 750.45c26.688 0 48.322 21.634 48.322 48.322s-21.634 48.322-48.322 48.322c-26.688 0-48.322-21.634-48.322-48.322s21.634-48.322 48.322-48.322z" />
</font>
</defs>
</svg>
